<svg xmlns="http://www.w3.org/2000/svg"  viewBox="0 0 4335 4335" width="67px" height="67px" fill-rule="evenodd" clip-rule="evenodd" image-rendering="optimizeQuality" shape-rendering="geometricPrecision" text-rendering="geometricPrecision"><path fill="#b52e97" d="M1780 1632c9,-69 51,-183 233,-194l692 0c263,0 309,191 317,249l0 364c0,282 288,573 506,573 218,0 214,-275 214,-275l0 -240 0 0c0,0 0,-279 0,-859 0,-579 -458,-546 -458,-546 0,0 -953,0 -1245,0 -203,0 -251,-119 -261,-192l0 -209 0 -3 0 0c-1,-75 -63,-135 -138,-135 -30,0 -58,10 -80,26 -6,3 -13,7 -19,12 -134,95 -910,739 -910,739 0,0 -101,58 -89,142 -12,84 89,142 89,142 0,0 776,643 910,739 6,5 13,8 19,12 23,16 50,26 80,26 75,0 136,-60 138,-135l0 0 0 -3 0 -233zm726 1091c-9,69 -51,183 -233,194l-692 0c-263,0 -309,-191 -317,-249l0 -364c0,-282 -288,-573 -506,-573 -218,0 -214,275 -214,275l0 240 0 0c0,0 0,279 0,859 0,579 458,546 458,546 0,0 953,0 1245,0 203,0 251,119 261,192l0 209 0 3 0 0c1,75 63,135 138,135 30,0 58,-10 80,-26 6,-3 13,-7 19,-12 134,-95 910,-739 910,-739 0,0 101,-58 89,-142 12,-84 -89,-142 -89,-142 0,0 -776,-643 -910,-739 -6,-5 -13,-8 -19,-12 -23,-16 -50,-26 -80,-26 -75,0 -136,60 -138,135l0 0 0 3 0 233z"/></svg>