<svg width="467" height="242" viewBox="0 0 467 242" fill="none" xmlns="http://www.w3.org/2000/svg">
  <path d="M400.733 89.6258C379.912 103.988 348.122 106.626 320.311 107.969C292.5 109.313 263.226 109.934 239.311 121.04C225.106 127.638 212.777 137.999 199.969 146.754C170.57 166.851 135.027 163.294 101.239 162.993C73.7562 162.747 48.1462 168.7 28.8918 189.435C16.1801 203.125 6.74942 220.345 0.988494 238.076C0.641734 239.144 0.292528 240.213 0 241.297H467V0.00738626C428.461 -0.807326 434.985 65.9991 400.733 89.6258Z" fill="url(#paint0_linear_466_991)"/>
  <path opacity="0.78" d="M466.085 63.4278C464.732 62.3671 463.714 55.4636 460.78 56.0334C446.019 58.9006 433.005 70.6359 424.739 84.1571C418.971 93.591 406.683 123.838 367.535 121.745C351.716 120.9 284.276 102.415 269.046 100.159C222.835 93.3134 184.327 102.375 153.395 128.045C130.1 147.375 107.983 167.064 84.8876 186.336C61.913 205.508 41.1224 221.939 8.5 222L0 241H463.921C464.098 230.914 464.276 220.829 464.453 210.743C464.836 189.024 465.218 167.305 465.6 145.586C465.963 124.994 466.325 104.401 466.688 83.8086C466.792 77.9225 466.895 72.0361 466.999 66.15C467.023 64.7434 466.687 63.8987 466.085 63.4278Z" fill="url(#paint1_linear_466_991)"/>
  <defs>
  <linearGradient id="paint0_linear_466_991" x1="207.142" y1="59.2378" x2="273.739" y2="214.716" gradientUnits="userSpaceOnUse">
  <stop stop-color="#E221AB"/>
  <stop offset="0.11618" stop-color="#B8219C"/>
  <stop offset="0.30207" stop-color="#7A2187"/>
  <stop offset="0.43863" stop-color="#54217A"/>
  <stop offset="0.51009" stop-color="#462176"/>
  <stop offset="1" stop-color="#462176" stop-opacity="0"/>
  </linearGradient>
  <linearGradient id="paint1_linear_466_991" x1="214.627" y1="46.0278" x2="250.479" y2="301.014" gradientUnits="userSpaceOnUse">
  <stop stop-color="#E221AB"/>
  <stop offset="0.51009" stop-color="#462176"/>
  <stop offset="1" stop-color="#462176" stop-opacity="0"/>
  </linearGradient>
  </defs>
</svg>
