<svg width="379" height="379" viewBox="0 0 379 379" fill="none" xmlns="http://www.w3.org/2000/svg">
<path d="M76.6719 2.1875C71.9618 2.19289 67.4462 4.06635 64.1156 7.39688C60.7851 10.7274 58.9116 15.243 58.9062 19.9531V25.875H52.9844C48.2743 25.8804 43.7587 27.7538 40.4281 31.0844C37.0976 34.4149 35.2241 38.9305 35.2188 43.6406V339.734C35.2241 344.444 37.0976 348.96 40.4281 352.291C43.7587 355.621 48.2743 357.495 52.9844 357.5H269.86L248.541 345.656H52.9844C51.4143 345.654 49.9091 345.03 48.799 343.92C47.6888 342.81 47.0643 341.304 47.0625 339.734V43.6406C47.0643 42.0706 47.6888 40.5654 48.799 39.4552C49.9091 38.345 51.4143 37.7205 52.9844 37.7188H266.172C267.742 37.7205 269.247 38.345 270.357 39.4552C271.467 40.5654 272.092 42.0706 272.094 43.6406V225.977L287.154 217.612C289.793 216.145 292.762 215.376 295.781 215.376C298.8 215.376 301.769 216.145 304.408 217.612L319.469 225.977V19.9531C319.463 15.243 317.59 10.7274 314.259 7.39688C310.929 4.06635 306.413 2.19289 301.703 2.1875H76.6719ZM64.8281 49.5625C63.2576 49.5626 61.7514 50.1865 60.6408 51.2971C59.5303 52.4076 58.9063 53.9138 58.9062 55.4844V280.516C58.9063 282.086 59.5303 283.592 60.6408 284.703C61.7514 285.813 63.2576 286.437 64.8281 286.438H224.719V262.75C224.719 259.582 225.566 256.471 227.173 253.741C228.78 251.01 231.088 248.759 233.857 247.221L260.25 232.557V55.4844C260.25 53.9138 259.626 52.4076 258.515 51.2971C257.405 50.1865 255.899 49.5626 254.328 49.5625H64.8281ZM161.312 69.0616L169.688 77.4384L151.923 95.204L178.5 79.6875L161.312 69.0616ZM222.07 79.7979L227.367 90.3896L168.149 119.999L241 98.0429L222.07 79.7979ZM98 90.6875L82.5938 138.844C83.4907 138.844 127.897 106.295 128.704 106.688C138.079 104.954 128.15 92.5743 128.704 93.2797L76.6719 266.234L187.114 167.62L188.469 166.265C191.801 162.933 118.589 232.557 123.301 232.557C128.013 232.557 247.168 232.668 250.5 236L222.984 175.655C223.534 176.205 222.202 177.281 222.5 178C222.798 178.719 224.719 179.066 224.719 179.844C224.719 180.622 224.566 181.392 224.268 182.111C223.97 182.829 223.534 183.482 222.984 184.032L212.368 194.648L234.829 217.108C235.379 217.658 235.815 218.311 236.113 219.03C236.411 219.749 236.564 220.519 236.564 221.297C236.564 222.075 236.411 222.845 236.113 223.564C235.815 224.282 184.55 242.701 184 243.251H217.063C216.514 243.801 215.861 244.238 215.142 244.536C214.423 244.833 214.778 242.501 214 242.5C213.222 242.501 211.327 244.833 210.608 244.536C209.889 244.238 227.723 247.772 227.173 247.221L186.227 220.789L175.61 231.407C175.06 231.957 174.407 232.393 173.689 232.691C172.97 232.989 173.278 231.407 172.5 231.407C171.722 231.407 169.874 232.989 169.155 232.691C168.436 232.393 167.783 231.957 167.233 231.407L157.843 222.015C154.512 218.684 152.64 214.165 152.64 209.453C152.64 204.741 154.512 200.223 157.843 196.891L250.5 167.62L84.8578 137.126C84.1524 136.571 85.8922 134.807 85.5 134C85.1078 133.193 112.949 69.9586 112.949 69.0616L82.5938 96.9375C82.5938 95.3669 90.8894 96.3146 92 95.204C93.1106 94.0935 96.4294 90.6876 98 90.6875ZM70.75 144.135L177.344 177.39L178.68 176.056L121.168 102.859L70.75 144.135ZM94.4375 111.235V129.59L167.634 187.102L168.968 185.766L94.4375 111.235ZM235.125 120.803L238 132.291L190.625 144.135L246 135.543L235.125 120.803ZM98.4871 162.382L102.232 173.618L84.466 179.54L178.68 261.588L98.4871 162.382ZM200.939 172.908C199.401 172.933 197.933 173.554 196.844 174.64L166.219 205.266C165.11 206.377 164.487 207.883 164.487 209.453C164.487 211.023 165.11 212.529 166.219 213.64L171.422 218.843L210.422 179.844L205.218 174.64C204.657 174.08 203.989 173.638 203.254 173.341C202.519 173.043 201.732 172.896 200.939 172.908ZM112.949 182.89L123.301 188.641L93.6915 241.938L100 237.043L112.949 182.89ZM130.083 202.369L118.125 205.266L107 261.043L118.239 261.588L130.083 202.369ZM203.994 203.024L194.602 212.414L166.219 239.043H236.564L203.994 203.024ZM295.822 227.219C294.802 227.212 293.797 227.469 292.906 227.965L239.609 257.574C238.686 258.087 237.916 258.837 237.381 259.747C236.845 260.657 236.563 261.694 236.562 262.75V321.969C236.563 323.025 236.845 324.061 237.381 324.971C237.916 325.882 238.686 326.632 239.609 327.145L292.906 356.754C293.785 357.243 294.775 357.499 295.781 357.499C296.788 357.499 297.777 357.243 298.657 356.754L351.954 327.145C352.877 326.632 353.646 325.882 354.182 324.971C354.717 324.061 355 323.025 355 321.969V262.75C355 261.694 354.717 260.657 354.182 259.747C353.646 258.837 352.877 258.087 351.954 257.574L298.657 227.965C297.789 227.482 296.814 227.226 295.822 227.219ZM295.781 239.914L343.156 266.234V318.484L295.781 344.805L248.406 318.484V266.234L295.781 239.914ZM296.02 256.832C295.02 256.793 294.027 257.006 293.133 257.454L269.445 269.298L274.742 279.89L295.521 269.5L319.469 283.868V304.203H331.312V280.516C331.312 279.493 331.047 278.488 330.543 277.598C330.039 276.708 329.314 275.964 328.437 275.438L298.827 257.672C297.977 257.162 297.011 256.873 296.02 256.832ZM58.9062 298.281V310.125H70.75V298.281H58.9062ZM82.5938 298.281V310.125H94.4375V298.281H82.5938ZM106.281 298.281V310.125H118.125V298.281H106.281ZM129.969 298.281V310.125H141.812V298.281H129.969ZM58.9062 321.969V333.812H177.344V321.969H58.9062Z" fill="#564D81"/>
<path d="M117.186 125.057C107.955 120.475 105.047 108.507 111.391 100.371C118.897 90.7451 132.306 80.7784 155.468 81.0038C185.038 81.2906 211.267 100.918 210.998 128.789C210.811 148.16 196.304 159.878 177.302 167.799C170.57 170.7 170.32 176.232 170.256 182.755C170.197 188.868 165.206 193.776 159.109 193.717L148.661 193.615C142.564 193.556 137.669 188.552 137.728 182.438L137.83 171.961C137.914 163.265 138.378 156.153 147.304 150.507C159.404 142.916 170.645 142.432 170.781 128.399C170.873 118.91 163.841 112.12 154.97 112.034C146.929 111.956 141.192 115.707 137.32 120.514C132.455 126.556 124.127 128.501 117.186 125.057V125.057ZM176.131 227.687C176.011 240.138 165.859 250.122 153.242 249.999C140.823 249.878 130.866 239.699 130.987 227.248C131.109 214.596 141.26 204.613 153.68 204.733C166.297 204.856 176.253 215.035 176.131 227.687V227.687Z" fill="#383159"/>
</svg>
