<svg width="306" height="356" viewBox="0 0 306 356" fill="none" xmlns="http://www.w3.org/2000/svg">
<g clip-path="url(#clip0_915_2405)">
<path d="M41.45 0C36.74 0 32.22 1.88 28.89 5.21C25.56 8.54 23.69 13.06 23.68 17.77V23.69H17.76C13.05 23.69 8.53 25.57 5.2 28.9C1.87 32.23 0 36.74 0 41.45V337.55C0 342.26 1.88 346.78 5.21 350.11C8.54 353.44 13.06 355.31 17.77 355.32H284.25V343.48H17.77C16.2 343.48 14.69 342.85 13.58 341.74C12.47 340.63 11.85 339.12 11.84 337.55V41.45C11.84 39.88 12.47 38.37 13.58 37.26C14.69 36.15 16.2 35.53 17.77 35.52H230.95C232.52 35.52 234.03 36.15 235.13 37.26C236.24 38.37 236.87 39.88 236.87 41.45V223.79L251.93 215.42C254.57 213.95 257.54 213.18 260.56 213.18C263.58 213.18 266.55 213.95 269.19 215.42L284.25 223.79V17.77C284.25 13.06 282.37 8.54 279.04 5.21C275.71 1.88 271.19 0.01 266.48 0L41.45 0ZM29.61 47.38C28.04 47.38 26.53 48 25.42 49.11C24.31 50.22 23.69 51.73 23.69 53.3V278.33C23.69 279.9 24.31 281.41 25.42 282.52C26.53 283.63 28.04 284.25 29.61 284.25H189.5V260.56C189.5 257.39 190.35 254.28 191.95 251.55C193.56 248.82 195.86 246.57 198.63 245.03L225.02 230.37V53.3C225.02 51.73 224.4 50.22 223.29 49.11C222.18 48 220.67 47.38 219.1 47.38H29.61ZM126.09 66.88L134.47 75.26L116.71 93.03L143.29 77.51L126.1 66.88H126.09ZM186.85 77.62L192.15 88.21L132.93 117.82L205.78 95.86L186.85 77.61V77.62ZM62.78 88.51L47.37 136.67C48.27 136.67 92.67 104.12 93.48 104.51C102.86 102.78 92.93 90.4 93.48 91.1L41.45 264.05L151.89 165.44L153.24 164.09C156.57 160.76 83.36 230.38 88.07 230.38C92.78 230.38 211.94 230.49 215.27 233.82L187.75 173.47C188.3 174.02 186.97 175.1 187.27 175.82C187.57 176.54 189.49 176.89 189.49 177.66C189.49 178.43 189.34 179.21 189.04 179.93C188.74 180.65 188.31 181.3 187.76 181.85L177.14 192.47L199.6 214.93C200.15 215.48 200.59 216.13 200.88 216.85C201.18 217.57 201.33 218.34 201.33 219.12C201.33 219.9 201.18 220.67 200.88 221.39C200.58 222.11 149.32 240.53 148.77 241.08H181.83C181.28 241.63 180.63 242.07 179.91 242.36C179.19 242.66 179.55 240.33 178.77 240.32C177.99 240.32 176.1 242.65 175.38 242.36C174.66 242.06 192.5 245.6 191.95 245.04L151 218.61L140.38 229.23C139.83 229.78 139.18 230.22 138.46 230.51C137.74 230.81 138.05 229.23 137.27 229.23C136.49 229.23 134.64 230.81 133.92 230.51C133.2 230.21 132.55 229.78 132 229.23L122.61 219.84C119.28 216.51 117.41 211.99 117.41 207.28C117.41 202.57 119.28 198.05 122.61 194.72L215.27 165.45L49.63 134.96C48.92 134.4 50.66 132.64 50.27 131.83C49.88 131.02 77.72 67.79 77.72 66.89L47.36 94.77C47.36 93.2 55.66 94.15 56.77 93.04C57.88 91.93 61.2 88.52 62.77 88.52L62.78 88.51ZM35.53 141.96L142.12 175.22L143.46 173.89L85.95 100.69L35.53 141.97V141.96ZM59.22 109.06V127.41L132.42 184.92L133.75 183.58L59.22 109.05V109.06ZM199.91 118.63L202.79 130.12L155.41 141.96L210.79 133.37L199.91 118.63ZM63.27 160.19L67.01 171.43L49.24 177.35L143.45 259.4L63.27 160.19ZM165.72 170.72C164.18 170.74 162.71 171.37 161.62 172.45L131 203.08C129.89 204.19 129.27 205.7 129.27 207.27C129.27 208.84 129.89 210.35 131 211.46L136.2 216.66L175.2 177.66L170 172.46C169.44 171.9 168.77 171.46 168.04 171.16C167.3 170.86 166.52 170.71 165.72 170.73V170.72ZM77.73 180.7L88.08 186.45L58.47 239.75L64.78 234.85L77.73 180.7ZM94.86 200.18L82.9 203.08L71.78 258.86L83.02 259.41L94.86 200.19V200.18ZM168.77 200.83L159.38 210.22L131 236.85H201.35L168.78 200.83H168.77ZM23.69 296.09V307.93H35.53V296.09H23.69ZM47.38 296.09V307.93H59.22V296.09H47.38ZM71.07 296.09V307.93H82.91V296.09H71.07ZM94.76 296.09V307.93H106.6V296.09H94.76ZM23.7 319.78V331.62H142.14V319.78H23.69H23.7Z" fill="#564D81"/>
<path d="M82.1863 125.057C72.9553 120.475 70.0474 108.507 76.3914 100.371C83.8974 90.7451 97.3064 80.7784 120.468 81.0038C150.038 81.2906 176.267 100.918 175.998 128.789C175.811 148.16 161.304 159.878 142.302 167.799C135.57 170.7 135.32 176.232 135.256 182.755C135.197 188.868 130.206 193.776 124.109 193.717L113.661 193.615C107.564 193.556 102.669 188.552 102.728 182.438L102.83 171.961C102.914 163.265 103.378 156.153 112.304 150.507C124.404 142.916 135.645 142.432 135.781 128.399C135.873 118.91 128.841 112.12 119.97 112.034C111.929 111.956 106.192 115.707 102.32 120.514C97.4554 126.556 89.1273 128.501 82.1863 125.057ZM141.131 227.687C141.011 240.138 130.859 250.122 118.242 249.999C105.823 249.878 95.8664 239.699 95.9874 227.248C96.1094 214.596 106.26 204.613 118.68 204.733C131.297 204.856 141.253 215.035 141.131 227.687Z" fill="#383159"/>
</g>
<path d="M224.952 277H205.048C202.812 277 201 278.95 201 281.354V321.647C201 324.051 202.812 326 205.048 326H224.952C227.187 326 229 324.051 229 321.647V281.354C229 278.95 227.187 277 224.952 277Z" fill="#564D81"/>
<path d="M263.952 253H244.048C241.812 253 240 254.973 240 257.408V321.592C240 324.027 241.812 326 244.048 326H263.952C266.187 326 268 324.027 268 321.592V257.408C268 254.973 266.187 253 263.952 253Z" fill="#564D81"/>
<path d="M301.952 237H282.048C279.813 237 278 238.963 278 241.386V321.614C278 324.037 279.813 326 282.048 326H301.952C304.188 326 306 324.037 306 321.614V241.386C306 238.963 304.188 237 301.952 237Z" fill="#564D81"/>
<defs>
<clipPath id="clip0_915_2405">
<rect width="284.25" height="355.31" fill="white"/>
</clipPath>
</defs>
</svg>
