<svg width="31" height="31" viewBox="0 0 31 31" fill="none" xmlns="http://www.w3.org/2000/svg">
<path d="M17.4372 6.4585L16.9205 3.10016C16.7913 2.84183 16.533 2.5835 16.2747 2.5835H14.7247C14.4663 2.5835 14.0788 2.84183 14.0788 3.10016L13.5622 6.4585H17.4372ZM13.5622 24.5418L14.0788 27.9002C14.0788 28.1585 14.3372 28.4168 14.7247 28.4168H16.2747C16.533 28.4168 16.9205 28.1585 16.9205 27.9002L17.4372 24.5418H13.5622ZM24.5413 17.4377L27.8997 16.921C28.158 16.921 28.4163 16.6627 28.4163 16.2752V14.7252C28.4163 14.4668 28.158 14.0793 27.8997 14.0793L24.5413 13.5627V17.4377ZM6.45801 13.5627L3.09967 14.0793C2.84134 14.2085 2.58301 14.4668 2.58301 14.7252V16.2752C2.58301 16.5335 2.84134 16.921 3.09967 16.921L6.45801 17.4377V13.5627ZM12.658 6.71683L10.4622 4.1335C10.333 3.87516 9.94551 3.746 9.68717 4.00433L8.39551 4.77933C8.13717 4.77933 8.00801 5.16683 8.13717 5.42516L9.29967 8.65433L12.658 6.71683ZM18.3413 24.2835L20.5372 26.8668C20.7955 27.1252 21.0538 27.1252 21.3122 26.996L22.6038 26.221C22.8622 26.0918 22.9913 25.7043 22.8622 25.446L21.6997 22.2168L18.3413 24.2835ZM24.283 12.6585L26.8663 10.4627C27.1247 10.3335 27.2538 9.946 26.9955 9.68766L26.2205 8.396C26.0913 8.13766 25.7038 8.0085 25.4455 8.13766L22.2163 9.30016L24.283 12.6585ZM6.71634 18.3418L4.13301 20.5377C3.87467 20.6668 3.74551 21.0543 4.00384 21.3127L4.77884 22.6043C4.90801 22.8627 5.29551 22.9918 5.55384 22.8627L8.78301 21.7002L6.71634 18.3418ZM8.65384 9.30016L5.42467 8.13766C5.16634 8.0085 4.90801 8.13766 4.64967 8.396L3.87467 9.68766C3.74551 9.946 3.87467 10.3335 4.13301 10.4627L6.71634 12.6585L8.65384 9.30016ZM22.3455 21.7002L25.5747 22.8627C25.833 22.9918 26.2205 22.8627 26.3497 22.6043L27.1247 21.3127C27.2538 21.0543 27.2538 20.6668 26.9955 20.5377L24.4122 18.3418L22.3455 21.7002ZM21.6997 8.65433L22.8622 5.42516C22.9913 5.16683 22.8622 4.77933 22.6038 4.65016L21.3122 3.87516C21.0538 3.746 20.6663 3.87516 20.5372 4.1335L18.3413 6.71683L21.6997 8.65433ZM9.29967 22.346L8.13717 25.5752C8.00801 25.8335 8.13717 26.221 8.39551 26.3502L9.68717 27.1252C9.94551 27.2543 10.333 27.1252 10.4622 26.8668L12.658 24.2835L9.29967 22.346ZM15.4997 19.3752C13.3038 19.3752 11.6247 17.696 11.6247 15.5002C11.6247 13.3043 13.3038 11.6252 15.4997 11.6252C17.6955 11.6252 19.3747 13.3043 19.3747 15.5002C19.3747 17.696 17.6955 19.3752 15.4997 19.3752ZM15.4997 14.2085C14.7247 14.2085 14.208 14.7252 14.208 15.5002C14.208 16.2752 14.7247 16.7918 15.4997 16.7918C16.2747 16.7918 16.7913 16.2752 16.7913 15.5002C16.7913 14.7252 16.2747 14.2085 15.4997 14.2085Z" fill="#A63A91"/>
<path opacity="0.3" d="M15.4997 6.4585C10.4622 6.4585 6.45801 10.4627 6.45801 15.5002C6.45801 20.5377 10.4622 24.5418 15.4997 24.5418C20.5372 24.5418 24.5413 20.5377 24.5413 15.5002C24.5413 10.4627 20.5372 6.4585 15.4997 6.4585ZM15.4997 18.0835C14.0788 18.0835 12.9163 16.921 12.9163 15.5002C12.9163 14.0793 14.0788 12.9168 15.4997 12.9168C16.9205 12.9168 18.083 14.0793 18.083 15.5002C18.083 16.921 16.9205 18.0835 15.4997 18.0835Z" fill="#A63A91"/>
<path d="M14.208 6.4585H16.7913V14.2085H14.208V6.4585Z" fill="#A63A91"/>
<path d="M6.9668 18.9077L13.6791 15.0338L14.9704 17.2712L8.25811 21.1451L6.9668 18.9077Z" fill="#A63A91"/>
<path d="M16.042 17.2241L17.3339 14.987L24.0452 18.8627L22.7533 21.0998L16.042 17.2241Z" fill="#A63A91"/>
<path d="M15.5003 25.8332C9.81699 25.8332 5.16699 21.1832 5.16699 15.4998C5.16699 9.8165 9.81699 5.1665 15.5003 5.1665C21.1837 5.1665 25.8337 9.8165 25.8337 15.4998C25.8337 21.1832 21.1837 25.8332 15.5003 25.8332ZM15.5003 7.74984C11.2378 7.74984 7.75033 11.2373 7.75033 15.4998C7.75033 19.7623 11.2378 23.2498 15.5003 23.2498C19.7628 23.2498 23.2503 19.7623 23.2503 15.4998C23.2503 11.2373 19.7628 7.74984 15.5003 7.74984Z" fill="#A63A91"/>
</svg>
