<svg width="153" height="144" viewBox="0 0 153 144" fill="none" xmlns="http://www.w3.org/2000/svg">
<path d="M151.575 80.7171C151.575 83.8405 150.99 86.9793 149.821 90.0411C146.851 97.8419 140.127 105.273 129.603 111.32C100.323 128.23 52.8414 128.23 23.5615 111.32C13.0527 105.258 6.31356 97.8419 3.34402 90.0411C2.17467 86.9793 1.59 83.8405 1.59 80.7171C1.59 69.639 8.89844 58.5764 23.5615 50.114C52.8414 33.2045 100.323 33.2045 129.603 50.114C144.251 58.5764 151.575 69.639 151.575 80.7171V80.7171Z" fill="#782186" stroke="#223893" stroke-width="1.2" stroke-linecap="round" stroke-linejoin="round"/>
<path d="M151.575 80.7173V99.3807C151.575 110.459 144.251 121.521 129.603 129.984C100.323 146.893 52.8414 146.893 23.5615 129.984C8.91385 121.521 1.60541 110.459 1.60541 99.3807V80.7173C1.60541 83.8407 2.19008 86.9795 3.35943 90.0413C6.31358 97.8421 13.0527 105.274 23.5769 111.32C52.8568 128.23 100.339 128.23 129.619 111.32C140.127 105.258 146.866 97.8421 149.836 90.0413C151.005 86.9795 151.59 83.8407 151.59 80.7173H151.575Z" fill="#DF30AA" stroke="#223893" stroke-width="1.2" stroke-miterlimit="10" stroke-linecap="round"/>
<path d="M151.575 44.8826C151.575 48.006 150.99 51.1448 149.821 54.2066C146.851 62.0074 140.127 69.439 129.603 75.4857C100.323 92.3952 52.8414 92.3952 23.5615 75.4857C13.0527 69.4236 6.31356 62.0074 3.34402 54.2066C2.17467 51.1448 1.59 48.006 1.59 44.8826C1.59 33.8046 8.89844 22.7419 23.5615 14.2795C52.8414 -2.62994 100.323 -2.62994 129.603 14.2795C144.251 22.7419 151.575 33.8046 151.575 44.8826Z" fill="#782186" stroke="#223893" stroke-width="1.2" stroke-linecap="round" stroke-linejoin="round"/>
<path d="M151.575 44.8828V63.5463C151.575 74.6243 144.251 85.687 129.603 94.1494C100.323 111.059 52.8414 111.059 23.5615 94.1494C8.91385 85.687 1.60541 74.6243 1.60541 63.5463V44.8828C1.60541 48.0062 2.19008 51.145 3.35943 54.2068C6.31358 62.0076 13.0527 69.4392 23.5769 75.4859C52.8568 92.3954 100.339 92.3954 129.619 75.4859C140.127 69.4238 146.866 62.0076 149.836 54.2068C151.005 51.145 151.59 48.0062 151.59 44.8828H151.575Z" fill="#DF30AA" stroke="#223893" stroke-width="1.2" stroke-miterlimit="10" stroke-linecap="round"/>
<path d="M125.414 40.7615C123.922 41.858 122.305 42.7579 120.723 43.7101C117.54 45.6263 114.329 47.4947 111.117 49.3617C109.95 50.0397 108.88 50.8757 107.649 51.446C107.14 51.4982 106.7 51.6834 106.384 52.1048C105.74 52.3323 105.108 52.4837 104.615 51.8091C104.361 51.1716 104.17 50.5139 103.972 49.8581C103.797 49.2765 103.476 48.9909 102.867 49.3667C100.756 49.7493 98.6435 50.1237 96.5344 50.516C92.0305 51.3538 87.528 52.1998 83.0253 53.0445C78.5481 53.8845 74.0724 54.732 69.5941 55.566C67.7723 55.9052 65.9455 56.2175 64.1209 56.542C63.3864 56.4356 62.8222 56.6764 62.3957 57.3022C62.0273 57.8427 61.7181 58.4118 61.4239 58.992C61.2899 59.5306 60.9229 59.9394 60.6383 60.3941C60.0858 60.8658 59.9282 61.5917 59.5044 62.1462L59.5087 62.1404C59.0775 62.7607 58.7144 63.4199 58.385 64.0984C57.9722 65.109 57.3464 65.957 56.4586 66.6046C55.8734 66.6847 55.4921 67.1257 55.0228 67.4109L55.0281 67.4069C54.1127 67.8919 53.0824 68.087 52.1539 68.5389C51.7489 68.7542 51.2956 68.7614 50.8583 68.8378C50.3269 68.6095 49.8218 68.9188 49.3029 68.9132C48.2983 68.9023 47.2896 68.9918 46.291 68.8049C46.0052 68.7514 45.7178 68.7 45.437 68.8317L45.2655 68.6917C43.6738 68.3052 42.054 67.9775 40.6959 66.9883C39.8718 66.3881 39.1314 65.6989 39.1168 64.5602C39.1078 63.8571 39.5456 63.3232 39.8215 62.7282C40.0558 61.7005 40.7662 60.9129 41.2744 60.0385C42.3978 58.1054 43.6034 56.22 44.6851 54.2593C45.1643 53.3906 45.7795 52.5965 46.333 51.7686C47.0436 50.5416 48.1156 49.6775 49.2521 48.8783C49.8337 48.4377 50.5126 48.1968 51.1847 47.9421C51.9133 47.9411 52.5678 47.6314 53.2527 47.4484C54.4554 47.0404 55.7215 46.9334 56.9553 46.6733C57.998 46.7304 58.9927 46.5016 59.97 46.1696C61.5973 45.8526 63.2241 45.5329 64.8521 45.2193C67.5236 44.7046 70.1951 44.1894 72.8683 43.6836C73.8541 43.497 74.8448 43.3363 75.8333 43.1637C76.6971 43.3166 77.5042 42.9841 78.325 42.8352C79.4096 42.6385 80.5188 42.5434 81.5704 42.1796C82.5551 41.757 83.6376 41.8094 84.6557 41.5485C84.8595 41.4963 85.0661 41.4546 85.2714 41.408C86.1375 41.5799 86.9396 41.21 87.7631 41.076C88.8533 40.8986 89.9641 40.7854 91.0201 40.424C92.5333 39.9817 94.0961 39.7747 95.6409 39.4923C96.9573 39.2517 98.2568 38.8874 99.6066 38.8442C100.506 38.5905 100.54 38.5839 100.362 37.6736C100.292 37.3148 100.368 36.8656 99.9744 36.6105C99.9877 36.2826 100.202 36.2113 100.483 36.1143C101.371 35.8084 102.249 35.9793 103.118 36.1239C104.973 36.4324 106.823 36.7654 108.686 37.0295C110.447 37.2791 112.186 37.6822 113.941 37.9759C115.694 38.2692 117.472 38.4297 119.209 38.7957C121.27 39.2303 123.387 39.3595 125.414 39.9638V40.7615V40.7615Z" fill="#F7EDF7"/>
<path d="M46.8644 42.6752C45.7651 42.0933 44.7988 41.3619 44.1486 40.2747C44.1377 39.7314 43.715 39.3515 43.5823 38.8557C42.8152 36.2537 42.1543 33.6228 41.3688 31.027C41.1331 30.0596 40.863 29.1016 40.567 28.1509C40.3356 27.1923 40.067 26.2439 39.7746 25.3023C39.6375 24.6932 39.485 24.0883 39.3627 23.4745C39.1541 22.4277 39.4404 21.5125 39.9375 20.6213C40.3909 19.8084 41.1035 19.2239 41.733 18.5657L42.3913 18.1124C43.0393 17.978 43.6038 17.6696 44.1312 17.2834C44.8377 16.895 45.6026 16.6769 46.3865 16.514C47.1915 16.706 47.9309 16.3155 48.7073 16.2388C50.109 16.1004 51.4989 16.0098 52.8936 16.2646C53.2291 16.3258 53.5824 16.1913 53.9101 16.3514L53.899 16.3451C55.6279 16.5635 57.2113 17.2765 58.8521 17.7945C59.4122 18.1299 59.9967 18.4299 60.4654 18.8982C62.3336 20.5943 62.7164 22.9624 63.3435 25.2207C64.3894 28.9869 65.4742 32.7423 66.4722 36.5215C66.9306 38.2576 66.5262 39.7602 65.2378 41.0198C64.934 41.3168 64.6551 41.6409 64.3022 41.8851L64.3072 41.8812C63.513 42.4079 62.735 42.9647 61.8019 43.235C61.0317 43.6577 60.1444 43.7625 59.3532 44.1293C58.5187 44.4393 57.627 44.4236 56.7658 44.5817C55.659 44.4598 54.5519 44.466 53.4447 44.5774C52.5744 44.464 51.6825 44.4734 50.8538 44.124C49.4869 43.7426 48.1885 43.1736 46.8644 42.6752L46.8644 42.6752Z" fill="#F7EDF7"/>
<path d="M85.2755 26.2443C85.8354 26.1962 86.39 26.1762 86.8708 26.5453C87.5783 26.9957 88.3977 27.2263 89.105 27.6772L89.0981 27.6723C90.0853 28.3223 90.8857 29.1061 91.2455 30.2885C91.5317 31.2287 91.254 32.0304 90.8325 32.8368C90.7314 33.0302 90.4249 33.1269 90.5397 33.4258C90.4313 33.6389 90.2778 33.8056 90.0517 33.8975C89.6891 33.8341 89.5859 34.179 89.3696 34.339C88.6233 34.891 87.7653 35.1974 86.9016 35.4988C84.9985 36.0131 83.092 36.4494 81.0972 36.0681C80.7982 36.011 80.4616 35.9829 80.1555 36.1242C79.8573 35.9234 79.4519 36.0943 79.1686 35.8414C78.2029 35.4786 77.1888 35.237 76.2921 34.7011L76.3 34.707C75.8712 34.3979 75.4079 34.1307 75.0749 33.7042C72.9943 31.9444 73.5187 29.3966 75.4839 28.0725C75.6587 27.9547 75.8053 27.7961 75.9785 27.6728L75.9728 27.6773C77.6457 26.6583 79.5044 26.242 81.42 26.0073C82.7125 25.9775 84.0006 26.0028 85.2755 26.2443V26.2443Z" fill="#F7EDF7"/>
</svg>
