<svg width="61" height="37" viewBox="0 0 61 37" fill="none" xmlns="http://www.w3.org/2000/svg">
<g clip-path="url(#clip0_1369_19644)">
<path d="M44.6484 22.4341C44.6484 22.4341 50.4513 22.6901 50.7641 22.7617C51.0769 22.8332 50.1302 24.9164 48.7616 26.1829C47.3929 27.4494 45.8311 27.6619 45.8311 27.6619C45.8311 27.6619 45.5673 25.0935 44.6484 22.4341Z" fill="url(#paint0_linear_1369_19644)"/>
<path d="M44.4473 21.9978C44.4473 21.9978 49.4064 21.9634 50.7642 22.7615C50.7642 22.7615 47.1006 23.6989 44.7732 22.704L44.4473 21.9978Z" fill="url(#paint1_linear_1369_19644)"/>
<g style="mix-blend-mode:multiply" opacity="0.3">
<path d="M50.6615 22.9816C50.6664 22.7709 48.3389 23.5303 47.8651 23.6246C47.3912 23.7189 47.4648 26.3951 47.6695 26.6925C47.8743 26.9898 50.6242 24.5948 50.6615 22.9816Z" fill="url(#paint2_linear_1369_19644)"/>
</g>
<g style="mix-blend-mode:soft-light" opacity="0.5">
<path d="M44.8652 23.0967C44.8652 23.0967 45.8689 24.037 46.2463 25.3849C46.6238 26.7328 45.9026 27.7434 45.9026 27.7434C45.9026 27.7434 45.6298 25.4836 44.8652 23.0967Z" fill="white"/>
</g>
<path d="M47.4385 22.1045C47.4385 22.1045 46.7571 22.8638 48.0198 23.1482C49.2824 23.4326 50.5617 22.8088 50.5617 22.8088C50.5617 22.8088 49.6407 22.4554 47.4385 22.1045Z" fill="url(#paint3_linear_1369_19644)"/>
<path d="M43.9648 12.9209C43.9648 12.9209 46.4822 13.1504 47.3518 8.69954C49.7018 7.78186 60.5763 5.07203 60.9454 5.25816C61.4306 5.50289 58.5654 16.9588 57.4211 18.2895C56.4154 19.459 48.3348 20.6509 48.3348 20.6509L43.9648 12.9209Z" fill="url(#paint4_linear_1369_19644)"/>
<path d="M60.9454 5.2583C60.9454 5.2583 58.5501 4.95244 57.2685 5.07479C56.3249 5.16487 46.1465 7.70553 46.1465 7.70553L47.3517 8.69968C47.3517 8.69968 58.1076 5.83951 60.9454 5.2583Z" fill="url(#paint5_linear_1369_19644)"/>
<path d="M46.1468 7.70557C46.1468 7.70557 45.4935 12.4391 42.9824 11.7701L43.9651 12.9211C43.9651 12.9211 47.1233 13.2423 47.3521 8.69972L46.1468 7.70557Z" fill="url(#paint6_linear_1369_19644)"/>
<path d="M44.9912 14.9548C44.9912 14.9548 49.1728 14.0053 49.4508 10.0842C49.4508 10.0842 58.4946 8.01836 58.7499 8.23234C59.0044 8.44569 56.7995 15.6095 56.3191 16.4062C55.8364 17.2068 47.2535 18.4383 47.2535 18.4383L46.877 17.9933C46.877 17.9933 54.8448 16.8632 55.7288 16.0207C56.6048 15.186 57.8916 9.61189 57.8926 9.15835C57.8936 8.70472 50.5649 10.242 50.2856 10.4684C50.0055 10.6955 48.9456 14.7789 45.3629 15.2445L44.9912 14.9548Z" fill="url(#paint7_linear_1369_19644)"/>
<g style="mix-blend-mode:multiply" opacity="0.66">
<path d="M49.4516 10.0842C49.4516 10.0842 49.0707 10.6126 51.9098 10.0326C54.6666 9.46928 58.0443 8.87601 58.3445 8.66077C58.6438 8.44626 58.7508 8.23242 58.7508 8.23242C58.7508 8.23242 57.6156 8.31839 54.4807 8.97622C51.2375 9.65677 49.4516 10.0842 49.4516 10.0842Z" fill="url(#paint8_linear_1369_19644)"/>
</g>
<path d="M47.2536 18.4383C47.2536 18.4383 47.1576 18.2471 47.2537 18.061C47.3498 17.8751 52.5177 17.1475 53.842 16.8368C55.1479 16.5305 55.9028 16.6801 55.9028 16.6801C55.9028 16.6801 54.2573 17.2776 51.4839 17.7466C48.6273 18.2297 47.2536 18.4383 47.2536 18.4383Z" fill="url(#paint9_linear_1369_19644)"/>
<path d="M47.3525 8.69946C47.3525 8.69946 48.2488 7.67469 52.1106 6.38993C55.9725 5.10517 59.538 5.57508 59.538 5.57508L47.3525 8.69946Z" fill="url(#paint10_linear_1369_19644)"/>
<g style="mix-blend-mode:soft-light" opacity="0.79">
<path d="M48.4268 20.6375C48.4268 20.6375 55.2649 18.9071 56.5744 18.1751C57.884 17.4432 59.1387 13.7437 59.1387 13.7437C59.1387 13.7437 58.2221 17.395 57.4211 18.2898C56.6202 19.1846 48.4268 20.6375 48.4268 20.6375Z" fill="white"/>
</g>
<path d="M50.04 10.9423C50.4418 10.4039 57.8932 9.15848 57.8932 9.15848C57.8932 9.15848 57.3751 8.94363 53.9666 9.60243C50.5582 10.2612 50.1494 10.7005 50.04 10.9423Z" fill="url(#paint11_linear_1369_19644)"/>
<path d="M15.8377 22.4341C15.8377 22.4341 10.0349 22.6901 9.72207 22.7617C9.40932 22.8332 10.3559 24.9164 11.7246 26.1829C13.0933 27.4494 14.655 27.6619 14.655 27.6619C14.655 27.6619 14.9189 25.0935 15.8377 22.4341Z" fill="url(#paint12_linear_1369_19644)"/>
<path d="M16.0396 21.9978C16.0396 21.9978 11.0805 21.9634 9.72266 22.7615C9.72266 22.7615 13.3863 23.6989 15.7137 22.704L16.0396 21.9978Z" fill="url(#paint13_linear_1369_19644)"/>
<g style="mix-blend-mode:multiply" opacity="0.3">
<path d="M9.8252 22.9816C9.82034 22.7709 12.1478 23.5303 12.6216 23.6246C13.0954 23.7189 13.0219 26.3951 12.8172 26.6925C12.6124 26.9898 9.86252 24.5948 9.8252 22.9816Z" fill="url(#paint14_linear_1369_19644)"/>
</g>
<g style="mix-blend-mode:soft-light" opacity="0.5">
<path d="M15.6212 23.0967C15.6212 23.0967 14.6176 24.037 14.2402 25.3849C13.8627 26.7328 14.5839 27.7434 14.5839 27.7434C14.5839 27.7434 14.8566 25.4836 15.6212 23.0967Z" fill="white"/>
</g>
<path d="M13.0481 22.1045C13.0481 22.1045 13.7294 22.8638 12.4668 23.1482C11.2041 23.4326 9.9248 22.8088 9.9248 22.8088C9.9248 22.8088 10.8458 22.4554 13.0481 22.1045Z" fill="url(#paint15_linear_1369_19644)"/>
<path d="M17.0354 12.9209C17.0354 12.9209 14.518 13.1504 13.6484 8.69954C11.2985 7.78186 0.423852 5.07203 0.0547936 5.25816C-0.43036 5.50289 2.43481 16.9588 3.57909 18.2895C4.58476 19.459 12.6654 20.6509 12.6654 20.6509L17.0354 12.9209H17.0354Z" fill="url(#paint16_linear_1369_19644)"/>
<path d="M0.0546875 5.2583C0.0546875 5.2583 2.44997 4.95244 3.73151 5.07479C4.67515 5.16487 14.8536 7.70553 14.8536 7.70553L13.6483 8.69968C13.6483 8.69968 2.89241 5.83951 0.0546875 5.2583Z" fill="url(#paint17_linear_1369_19644)"/>
<path d="M14.8537 7.70557C14.8537 7.70557 15.5071 12.4391 18.0181 11.7701L17.0354 12.9211C17.0354 12.9211 13.8772 13.2423 13.6484 8.69972L14.8537 7.70557Z" fill="url(#paint18_linear_1369_19644)"/>
<path d="M16.0086 14.9548C16.0086 14.9548 11.827 14.0053 11.549 10.0842C11.549 10.0842 2.5051 8.01836 2.24987 8.23234C1.99536 8.44569 4.20029 15.6095 4.68066 16.4062C5.1634 17.2068 13.7462 18.4383 13.7462 18.4383L14.1228 17.9933C14.1228 17.9933 6.15496 16.8632 5.27095 16.0207C4.39504 15.186 3.10814 9.61189 3.10718 9.15835C3.10616 8.70472 10.4349 10.242 10.7142 10.4684C10.9943 10.6955 12.0542 14.7789 15.6369 15.2445L16.0086 14.9548H16.0086Z" fill="url(#paint19_linear_1369_19644)"/>
<g style="mix-blend-mode:multiply" opacity="0.66">
<path d="M11.5491 10.0842C11.5491 10.0842 11.93 10.6126 9.091 10.0326C6.33414 9.46928 2.95643 8.87601 2.65621 8.66077C2.35696 8.44626 2.25 8.23242 2.25 8.23242C2.25 8.23242 3.3852 8.31839 6.5201 8.97622C9.76322 9.65677 11.5491 10.0842 11.5491 10.0842Z" fill="url(#paint20_linear_1369_19644)"/>
</g>
<path d="M13.7469 18.4383C13.7469 18.4383 13.8429 18.2471 13.7467 18.061C13.6507 17.8751 8.48277 17.1475 7.15852 16.8368C5.85264 16.5305 5.09766 16.6801 5.09766 16.6801C5.09766 16.6801 6.74323 17.2776 9.5166 17.7466C12.3732 18.2297 13.7469 18.4383 13.7469 18.4383Z" fill="url(#paint21_linear_1369_19644)"/>
<path d="M13.6483 8.69946C13.6483 8.69946 12.752 7.67469 8.89016 6.38993C5.02835 5.10517 1.46289 5.57508 1.46289 5.57508L13.6483 8.69946Z" fill="url(#paint22_linear_1369_19644)"/>
<g style="mix-blend-mode:soft-light" opacity="0.79">
<path d="M12.5733 20.6375C12.5733 20.6375 5.73516 18.9071 4.42561 18.1751C3.11605 17.4432 1.86133 13.7437 1.86133 13.7437C1.86133 13.7437 2.77791 17.395 3.57888 18.2898C4.37981 19.1846 12.5733 20.6375 12.5733 20.6375H12.5733Z" fill="white"/>
</g>
<path d="M10.9606 10.9423C10.5589 10.4039 3.10742 9.15848 3.10742 9.15848C3.10742 9.15848 3.62557 8.94363 7.03402 9.60243C10.4425 10.2612 10.8513 10.7005 10.9606 10.9423Z" fill="url(#paint23_linear_1369_19644)"/>
<path d="M30.3626 37C40.6362 37 48.9645 28.6507 48.9645 18.3513C48.9645 8.05194 40.6362 -0.297363 30.3626 -0.297363C20.0891 -0.297363 11.7607 8.05194 11.7607 18.3513C11.7607 28.6507 20.0891 37 30.3626 37Z" fill="url(#paint24_linear_1369_19644)"/>
<path d="M30.3626 36.4606C40.3389 36.4606 48.4264 28.3528 48.4264 18.3514C48.4264 8.34996 40.3389 0.242188 30.3626 0.242188C20.3863 0.242188 12.2988 8.34996 12.2988 18.3514C12.2988 28.3528 20.3863 36.4606 30.3626 36.4606Z" fill="url(#paint25_linear_1369_19644)"/>
<path d="M44.0554 18.3515C44.0554 25.9347 37.9238 32.0799 30.3627 32.0799C22.8016 32.0799 16.6699 25.9347 16.6699 18.3515C16.6699 10.7683 22.8016 4.62305 30.3627 4.62305C37.9238 4.62305 44.0554 10.7683 44.0554 18.3515Z" fill="url(#paint26_linear_1369_19644)" stroke="url(#paint27_linear_1369_19644)"/>
<g style="mix-blend-mode:soft-light" opacity="0.5">
<path d="M15.2865 8.88756C15.0109 10.2063 17.7994 10.2797 20.3611 8.25651C22.9229 6.23328 24.6971 4.17396 30.921 4.13526C37.1448 4.09652 40.4908 7.97773 42.4184 10.8397C44.3459 13.7018 47.131 12.3086 47.3515 11.7854C47.5719 11.2621 42.3225 0.242188 31.3121 0.242188C20.3016 0.242188 15.3977 8.356 15.2865 8.88756Z" fill="white"/>
</g>
<g style="mix-blend-mode:soft-light" opacity="0.8">
<path d="M16.623 30.1045C16.623 30.1045 21.9571 35.7262 30.3623 35.7262C38.7675 35.7262 44.1034 30.1045 44.1034 30.1045C44.1034 30.1045 39.2639 36.4603 30.3623 36.4603C21.4608 36.4603 16.623 30.1045 16.623 30.1045Z" fill="white"/>
</g>
<g style="mix-blend-mode:multiply" opacity="0.3">
<path d="M17.2773 12.8314C17.2773 12.8314 20.5898 6.20082 30.3622 6.20082C40.1347 6.20082 43.9641 14.3124 43.9641 14.3124C43.9641 14.3124 40.2584 4.13525 30.9206 4.13525C21.5828 4.13525 17.2773 12.8314 17.2773 12.8314Z" fill="url(#paint28_linear_1369_19644)"/>
</g>
<g style="mix-blend-mode:multiply" opacity="0.3">
<path d="M44.5551 13.5104C44.2236 13.2123 45.3138 18.3514 44.5551 22.0222C43.7964 25.693 47.0192 24.5917 47.9099 21.0433C48.8005 17.4949 47.58 12.7149 46.9087 12.5874C46.2374 12.4599 44.5551 13.5104 44.5551 13.5104Z" fill="url(#paint29_linear_1369_19644)"/>
</g>
<path d="M21.3438 29.3384C21.3438 29.3384 24.8179 31.9028 30.3633 32.0863C35.9089 32.2699 38.8817 29.7322 38.8817 29.7322C38.8817 29.7322 35.4939 32.6458 30.6209 32.5726C25.748 32.4993 21.3438 29.3384 21.3438 29.3384Z" fill="url(#paint30_linear_1369_19644)"/>
<path d="M25.5716 24V21.7273L29.9125 18.1364C30.2003 17.8977 30.4466 17.6742 30.6511 17.4659C30.8594 17.2538 31.0185 17.036 31.1284 16.8125C31.242 16.589 31.2988 16.3409 31.2988 16.0682C31.2988 15.7689 31.2344 15.5133 31.1056 15.3011C30.9806 15.089 30.8064 14.9261 30.5829 14.8125C30.3594 14.6951 30.1019 14.6364 29.8102 14.6364C29.5185 14.6364 29.2609 14.6951 29.0375 14.8125C28.8178 14.9299 28.6473 15.1023 28.5261 15.3295C28.4049 15.5568 28.3443 15.8333 28.3443 16.1591H25.3443C25.3443 15.3409 25.528 14.6364 25.8954 14.0455C26.2628 13.4545 26.7818 13 27.4522 12.6818C28.1227 12.3636 28.9087 12.2045 29.8102 12.2045C30.742 12.2045 31.5488 12.3542 32.2306 12.6534C32.9163 12.9489 33.4447 13.3655 33.8159 13.9034C34.1909 14.4413 34.3784 15.072 34.3784 15.7955C34.3784 16.2424 34.2856 16.6875 34.1 17.1307C33.9144 17.5701 33.581 18.0568 33.1 18.5909C32.6189 19.125 31.9352 19.7614 31.0488 20.5L29.9579 21.4091V21.4773H34.5034V24H25.5716Z" fill="white"/>
</g>
<defs>
<linearGradient id="paint0_linear_1369_19644" x1="50.8241" y1="25.048" x2="44.6484" y2="25.048" gradientUnits="userSpaceOnUse">
<stop stop-color="#4D4D4D"/>
<stop offset="0.06335" stop-color="#6A6A6A"/>
<stop offset="0.24471" stop-color="#B8B8B8"/>
<stop offset="0.32804" stop-color="#D8D8D8"/>
<stop offset="0.52404" stop-color="white"/>
<stop offset="0.72982" stop-color="#D8D8D8"/>
<stop offset="1" stop-color="#4D4D4D"/>
</linearGradient>
<linearGradient id="paint1_linear_1369_19644" x1="50.7642" y1="22.5796" x2="44.4473" y2="22.5796" gradientUnits="userSpaceOnUse">
<stop stop-color="#4D4D4D"/>
<stop offset="0.06335" stop-color="#6A6A6A"/>
<stop offset="0.24471" stop-color="#B8B8B8"/>
<stop offset="0.32804" stop-color="#D8D8D8"/>
<stop offset="0.52404" stop-color="white"/>
<stop offset="0.72982" stop-color="#D8D8D8"/>
<stop offset="1" stop-color="#4D4D4D"/>
</linearGradient>
<linearGradient id="paint2_linear_1369_19644" x1="50.6615" y1="24.8313" x2="47.5107" y2="24.8313" gradientUnits="userSpaceOnUse">
<stop stop-color="#4D4D4D"/>
<stop offset="0.06335" stop-color="#6A6A6A"/>
<stop offset="0.24471" stop-color="#B8B8B8"/>
<stop offset="0.32804" stop-color="#D8D8D8"/>
<stop offset="0.52404" stop-color="white"/>
<stop offset="0.72982" stop-color="#D8D8D8"/>
<stop offset="1" stop-color="#4D4D4D"/>
</linearGradient>
<linearGradient id="paint3_linear_1369_19644" x1="50.5617" y1="22.6635" x2="47.2549" y2="22.6635" gradientUnits="userSpaceOnUse">
<stop stop-color="#4D4D4D"/>
<stop offset="0.06335" stop-color="#6A6A6A"/>
<stop offset="0.24471" stop-color="#B8B8B8"/>
<stop offset="0.32804" stop-color="#D8D8D8"/>
<stop offset="0.52404" stop-color="white"/>
<stop offset="0.72982" stop-color="#D8D8D8"/>
<stop offset="1" stop-color="#4D4D4D"/>
</linearGradient>
<linearGradient id="paint4_linear_1369_19644" x1="61.0002" y1="12.95" x2="43.9648" y2="12.95" gradientUnits="userSpaceOnUse">
<stop stop-color="#4D4D4D"/>
<stop offset="0.06335" stop-color="#6A6A6A"/>
<stop offset="0.24471" stop-color="#B8B8B8"/>
<stop offset="0.32804" stop-color="#D8D8D8"/>
<stop offset="0.52404" stop-color="white"/>
<stop offset="0.72982" stop-color="#D8D8D8"/>
<stop offset="1" stop-color="#4D4D4D"/>
</linearGradient>
<linearGradient id="paint5_linear_1369_19644" x1="60.9454" y1="6.87279" x2="46.1465" y2="6.87279" gradientUnits="userSpaceOnUse">
<stop stop-color="#4D4D4D"/>
<stop offset="0.06335" stop-color="#6A6A6A"/>
<stop offset="0.24471" stop-color="#B8B8B8"/>
<stop offset="0.32804" stop-color="#D8D8D8"/>
<stop offset="0.52404" stop-color="white"/>
<stop offset="0.72982" stop-color="#D8D8D8"/>
<stop offset="1" stop-color="#4D4D4D"/>
</linearGradient>
<linearGradient id="paint6_linear_1369_19644" x1="47.3521" y1="10.3158" x2="42.9824" y2="10.3158" gradientUnits="userSpaceOnUse">
<stop stop-color="#4D4D4D"/>
<stop offset="0.06335" stop-color="#6A6A6A"/>
<stop offset="0.24471" stop-color="#B8B8B8"/>
<stop offset="0.32804" stop-color="#D8D8D8"/>
<stop offset="0.52404" stop-color="white"/>
<stop offset="0.72982" stop-color="#D8D8D8"/>
<stop offset="1" stop-color="#4D4D4D"/>
</linearGradient>
<linearGradient id="paint7_linear_1369_19644" x1="58.7703" y1="13.3276" x2="44.9912" y2="13.3276" gradientUnits="userSpaceOnUse">
<stop stop-color="#4D4D4D"/>
<stop offset="0.06335" stop-color="#6A6A6A"/>
<stop offset="0.24471" stop-color="#B8B8B8"/>
<stop offset="0.32804" stop-color="#D8D8D8"/>
<stop offset="0.52404" stop-color="white"/>
<stop offset="0.72982" stop-color="#D8D8D8"/>
<stop offset="1" stop-color="#4D4D4D"/>
</linearGradient>
<linearGradient id="paint8_linear_1369_19644" x1="58.7508" y1="9.26845" x2="49.4346" y2="9.26845" gradientUnits="userSpaceOnUse">
<stop stop-color="#4D4D4D"/>
<stop offset="0.06335" stop-color="#6A6A6A"/>
<stop offset="0.24471" stop-color="#B8B8B8"/>
<stop offset="0.32804" stop-color="#D8D8D8"/>
<stop offset="0.52404" stop-color="white"/>
<stop offset="0.72982" stop-color="#D8D8D8"/>
<stop offset="1" stop-color="#4D4D4D"/>
</linearGradient>
<linearGradient id="paint9_linear_1369_19644" x1="55.9028" y1="17.5409" x2="47.2109" y2="17.5409" gradientUnits="userSpaceOnUse">
<stop stop-color="#4D4D4D"/>
<stop offset="0.06335" stop-color="#6A6A6A"/>
<stop offset="0.24471" stop-color="#B8B8B8"/>
<stop offset="0.32804" stop-color="#D8D8D8"/>
<stop offset="0.52404" stop-color="white"/>
<stop offset="0.72982" stop-color="#D8D8D8"/>
<stop offset="1" stop-color="#4D4D4D"/>
</linearGradient>
<linearGradient id="paint10_linear_1369_19644" x1="59.538" y1="7.09534" x2="47.3525" y2="7.09534" gradientUnits="userSpaceOnUse">
<stop stop-color="#4D4D4D"/>
<stop offset="0.06335" stop-color="#6A6A6A"/>
<stop offset="0.24471" stop-color="#B8B8B8"/>
<stop offset="0.32804" stop-color="#D8D8D8"/>
<stop offset="0.52404" stop-color="white"/>
<stop offset="0.72982" stop-color="#D8D8D8"/>
<stop offset="1" stop-color="#4D4D4D"/>
</linearGradient>
<linearGradient id="paint11_linear_1369_19644" x1="57.8932" y1="10.0337" x2="50.04" y2="10.0337" gradientUnits="userSpaceOnUse">
<stop stop-color="#4D4D4D"/>
<stop offset="0.06335" stop-color="#6A6A6A"/>
<stop offset="0.24471" stop-color="#B8B8B8"/>
<stop offset="0.32804" stop-color="#D8D8D8"/>
<stop offset="0.52404" stop-color="white"/>
<stop offset="0.72982" stop-color="#D8D8D8"/>
<stop offset="1" stop-color="#4D4D4D"/>
</linearGradient>
<linearGradient id="paint12_linear_1369_19644" x1="15.8377" y1="25.048" x2="9.66211" y2="25.048" gradientUnits="userSpaceOnUse">
<stop stop-color="#4D4D4D"/>
<stop offset="0.06335" stop-color="#6A6A6A"/>
<stop offset="0.24471" stop-color="#B8B8B8"/>
<stop offset="0.32804" stop-color="#D8D8D8"/>
<stop offset="0.52404" stop-color="white"/>
<stop offset="0.72982" stop-color="#D8D8D8"/>
<stop offset="1" stop-color="#4D4D4D"/>
</linearGradient>
<linearGradient id="paint13_linear_1369_19644" x1="16.0396" y1="22.5796" x2="9.72266" y2="22.5796" gradientUnits="userSpaceOnUse">
<stop stop-color="#4D4D4D"/>
<stop offset="0.06335" stop-color="#6A6A6A"/>
<stop offset="0.24471" stop-color="#B8B8B8"/>
<stop offset="0.32804" stop-color="#D8D8D8"/>
<stop offset="0.52404" stop-color="white"/>
<stop offset="0.72982" stop-color="#D8D8D8"/>
<stop offset="1" stop-color="#4D4D4D"/>
</linearGradient>
<linearGradient id="paint14_linear_1369_19644" x1="12.976" y1="24.8313" x2="9.8252" y2="24.8313" gradientUnits="userSpaceOnUse">
<stop stop-color="#4D4D4D"/>
<stop offset="0.06335" stop-color="#6A6A6A"/>
<stop offset="0.24471" stop-color="#B8B8B8"/>
<stop offset="0.32804" stop-color="#D8D8D8"/>
<stop offset="0.52404" stop-color="white"/>
<stop offset="0.72982" stop-color="#D8D8D8"/>
<stop offset="1" stop-color="#4D4D4D"/>
</linearGradient>
<linearGradient id="paint15_linear_1369_19644" x1="13.2316" y1="22.6635" x2="9.9248" y2="22.6635" gradientUnits="userSpaceOnUse">
<stop stop-color="#4D4D4D"/>
<stop offset="0.06335" stop-color="#6A6A6A"/>
<stop offset="0.24471" stop-color="#B8B8B8"/>
<stop offset="0.32804" stop-color="#D8D8D8"/>
<stop offset="0.52404" stop-color="white"/>
<stop offset="0.72982" stop-color="#D8D8D8"/>
<stop offset="1" stop-color="#4D4D4D"/>
</linearGradient>
<linearGradient id="paint16_linear_1369_19644" x1="17.0354" y1="12.95" x2="0" y2="12.95" gradientUnits="userSpaceOnUse">
<stop stop-color="#4D4D4D"/>
<stop offset="0.06335" stop-color="#6A6A6A"/>
<stop offset="0.24471" stop-color="#B8B8B8"/>
<stop offset="0.32804" stop-color="#D8D8D8"/>
<stop offset="0.52404" stop-color="white"/>
<stop offset="0.72982" stop-color="#D8D8D8"/>
<stop offset="1" stop-color="#4D4D4D"/>
</linearGradient>
<linearGradient id="paint17_linear_1369_19644" x1="14.8536" y1="6.87279" x2="0.0546875" y2="6.87279" gradientUnits="userSpaceOnUse">
<stop stop-color="#4D4D4D"/>
<stop offset="0.06335" stop-color="#6A6A6A"/>
<stop offset="0.24471" stop-color="#B8B8B8"/>
<stop offset="0.32804" stop-color="#D8D8D8"/>
<stop offset="0.52404" stop-color="white"/>
<stop offset="0.72982" stop-color="#D8D8D8"/>
<stop offset="1" stop-color="#4D4D4D"/>
</linearGradient>
<linearGradient id="paint18_linear_1369_19644" x1="18.0181" y1="10.3158" x2="13.6484" y2="10.3158" gradientUnits="userSpaceOnUse">
<stop stop-color="#4D4D4D"/>
<stop offset="0.06335" stop-color="#6A6A6A"/>
<stop offset="0.24471" stop-color="#B8B8B8"/>
<stop offset="0.32804" stop-color="#D8D8D8"/>
<stop offset="0.52404" stop-color="white"/>
<stop offset="0.72982" stop-color="#D8D8D8"/>
<stop offset="1" stop-color="#4D4D4D"/>
</linearGradient>
<linearGradient id="paint19_linear_1369_19644" x1="16.0086" y1="13.3276" x2="2.22949" y2="13.3276" gradientUnits="userSpaceOnUse">
<stop stop-color="#4D4D4D"/>
<stop offset="0.06335" stop-color="#6A6A6A"/>
<stop offset="0.24471" stop-color="#B8B8B8"/>
<stop offset="0.32804" stop-color="#D8D8D8"/>
<stop offset="0.52404" stop-color="white"/>
<stop offset="0.72982" stop-color="#D8D8D8"/>
<stop offset="1" stop-color="#4D4D4D"/>
</linearGradient>
<linearGradient id="paint20_linear_1369_19644" x1="11.5662" y1="9.26845" x2="2.25" y2="9.26845" gradientUnits="userSpaceOnUse">
<stop stop-color="#4D4D4D"/>
<stop offset="0.06335" stop-color="#6A6A6A"/>
<stop offset="0.24471" stop-color="#B8B8B8"/>
<stop offset="0.32804" stop-color="#D8D8D8"/>
<stop offset="0.52404" stop-color="white"/>
<stop offset="0.72982" stop-color="#D8D8D8"/>
<stop offset="1" stop-color="#4D4D4D"/>
</linearGradient>
<linearGradient id="paint21_linear_1369_19644" x1="13.7895" y1="17.5409" x2="5.09766" y2="17.5409" gradientUnits="userSpaceOnUse">
<stop stop-color="#4D4D4D"/>
<stop offset="0.06335" stop-color="#6A6A6A"/>
<stop offset="0.24471" stop-color="#B8B8B8"/>
<stop offset="0.32804" stop-color="#D8D8D8"/>
<stop offset="0.52404" stop-color="white"/>
<stop offset="0.72982" stop-color="#D8D8D8"/>
<stop offset="1" stop-color="#4D4D4D"/>
</linearGradient>
<linearGradient id="paint22_linear_1369_19644" x1="13.6483" y1="7.09534" x2="1.46289" y2="7.09534" gradientUnits="userSpaceOnUse">
<stop stop-color="#4D4D4D"/>
<stop offset="0.06335" stop-color="#6A6A6A"/>
<stop offset="0.24471" stop-color="#B8B8B8"/>
<stop offset="0.32804" stop-color="#D8D8D8"/>
<stop offset="0.52404" stop-color="white"/>
<stop offset="0.72982" stop-color="#D8D8D8"/>
<stop offset="1" stop-color="#4D4D4D"/>
</linearGradient>
<linearGradient id="paint23_linear_1369_19644" x1="10.9606" y1="10.0337" x2="3.10742" y2="10.0337" gradientUnits="userSpaceOnUse">
<stop stop-color="#4D4D4D"/>
<stop offset="0.06335" stop-color="#6A6A6A"/>
<stop offset="0.24471" stop-color="#B8B8B8"/>
<stop offset="0.32804" stop-color="#D8D8D8"/>
<stop offset="0.52404" stop-color="white"/>
<stop offset="0.72982" stop-color="#D8D8D8"/>
<stop offset="1" stop-color="#4D4D4D"/>
</linearGradient>
<linearGradient id="paint24_linear_1369_19644" x1="48.9645" y1="18.3513" x2="11.7607" y2="18.3513" gradientUnits="userSpaceOnUse">
<stop stop-color="#4D4D4D"/>
<stop offset="0.06335" stop-color="#6A6A6A"/>
<stop offset="0.24471" stop-color="#B8B8B8"/>
<stop offset="0.32804" stop-color="#D8D8D8"/>
<stop offset="0.52404" stop-color="white"/>
<stop offset="0.72982" stop-color="#D8D8D8"/>
<stop offset="1" stop-color="#4D4D4D"/>
</linearGradient>
<linearGradient id="paint25_linear_1369_19644" x1="48.4264" y1="18.3514" x2="12.2988" y2="18.3514" gradientUnits="userSpaceOnUse">
<stop stop-color="#4D4D4D"/>
<stop offset="0.06335" stop-color="#6A6A6A"/>
<stop offset="0.24471" stop-color="#B8B8B8"/>
<stop offset="0.32804" stop-color="#D8D8D8"/>
<stop offset="0.52404" stop-color="white"/>
<stop offset="0.72982" stop-color="#D8D8D8"/>
<stop offset="1" stop-color="#4D4D4D"/>
</linearGradient>
<linearGradient id="paint26_linear_1369_19644" x1="44.5554" y1="18.3515" x2="16.1699" y2="18.3515" gradientUnits="userSpaceOnUse">
<stop stop-color="#4D4D4D"/>
<stop offset="0.06335" stop-color="#6A6A6A"/>
<stop offset="1" stop-color="#4D4D4D"/>
</linearGradient>
<linearGradient id="paint27_linear_1369_19644" x1="44.5554" y1="18.3515" x2="16.1699" y2="18.3515" gradientUnits="userSpaceOnUse">
<stop stop-color="#4D4D4D"/>
<stop offset="0.06335" stop-color="#6A6A6A"/>
<stop offset="0.24471" stop-color="#B8B8B8"/>
<stop offset="0.32804" stop-color="#D8D8D8"/>
<stop offset="0.52404" stop-color="white"/>
<stop offset="0.72982" stop-color="#D8D8D8"/>
<stop offset="1" stop-color="#4D4D4D"/>
</linearGradient>
<linearGradient id="paint28_linear_1369_19644" x1="43.9641" y1="9.22385" x2="17.2773" y2="9.22385" gradientUnits="userSpaceOnUse">
<stop stop-color="#4D4D4D"/>
<stop offset="0.06335" stop-color="#6A6A6A"/>
<stop offset="0.24471" stop-color="#B8B8B8"/>
<stop offset="0.32804" stop-color="#D8D8D8"/>
<stop offset="0.52404" stop-color="white"/>
<stop offset="0.72982" stop-color="#D8D8D8"/>
<stop offset="1" stop-color="#4D4D4D"/>
</linearGradient>
<linearGradient id="paint29_linear_1369_19644" x1="48.2236" y1="18.436" x2="44.4404" y2="18.436" gradientUnits="userSpaceOnUse">
<stop stop-color="#4D4D4D"/>
<stop offset="0.06335" stop-color="#6A6A6A"/>
<stop offset="0.24471" stop-color="#B8B8B8"/>
<stop offset="0.32804" stop-color="#D8D8D8"/>
<stop offset="0.52404" stop-color="white"/>
<stop offset="0.72982" stop-color="#D8D8D8"/>
<stop offset="1" stop-color="#4D4D4D"/>
</linearGradient>
<linearGradient id="paint30_linear_1369_19644" x1="38.8817" y1="30.9561" x2="21.3438" y2="30.9561" gradientUnits="userSpaceOnUse">
<stop stop-color="#4D4D4D"/>
<stop offset="0.06335" stop-color="#6A6A6A"/>
<stop offset="0.24471" stop-color="#B8B8B8"/>
<stop offset="0.32804" stop-color="#D8D8D8"/>
<stop offset="0.52404" stop-color="white"/>
<stop offset="0.72982" stop-color="#D8D8D8"/>
<stop offset="1" stop-color="#4D4D4D"/>
</linearGradient>
<clipPath id="clip0_1369_19644">
<rect width="61" height="37" fill="white"/>
</clipPath>
</defs>
</svg>
