<svg width="55" height="43" viewBox="0 0 55 43" fill="none" xmlns="http://www.w3.org/2000/svg">
<path d="M43.9482 18.7661C43.9482 18.7661 50.5741 19.0584 50.9313 19.1402C51.2884 19.2219 50.2075 21.6005 48.6447 23.0467C47.082 24.4928 45.2987 24.7354 45.2987 24.7354C45.2987 24.7354 44.9974 21.8027 43.9482 18.7661Z" fill="url(#paint0_linear_1369_19720)"/>
<path d="M43.7188 18.2678C43.7188 18.2678 49.3812 18.2286 50.9317 19.1398C50.9317 19.1398 46.7485 20.2102 44.091 19.0742L43.7188 18.2678Z" fill="url(#paint1_linear_1369_19720)"/>
<g style="mix-blend-mode:multiply" opacity="0.3">
<path d="M50.8144 19.3911C50.82 19.1505 48.1624 20.0176 47.6214 20.1253C47.0803 20.233 47.1643 23.2887 47.3981 23.6283C47.6319 23.9678 50.7718 21.2332 50.8144 19.3911Z" fill="url(#paint2_linear_1369_19720)"/>
</g>
<g style="mix-blend-mode:soft-light" opacity="0.5">
<path d="M44.1953 19.5225C44.1953 19.5225 45.3413 20.5962 45.7722 22.1353C46.2033 23.6743 45.3798 24.8282 45.3798 24.8282C45.3798 24.8282 45.0684 22.2479 44.1953 19.5225Z" fill="white"/>
</g>
<path d="M47.1344 18.3896C47.1344 18.3896 46.3564 19.2567 47.7982 19.5814C49.2399 19.9061 50.7006 19.1938 50.7006 19.1938C50.7006 19.1938 49.649 18.7903 47.1344 18.3896Z" fill="url(#paint3_linear_1369_19720)"/>
<path d="M11.0515 18.7661C11.0515 18.7661 4.42564 19.0584 4.06847 19.1402C3.71135 19.2219 4.79223 21.6005 6.35504 23.0467C7.9178 24.4928 9.70109 24.7354 9.70109 24.7354C9.70109 24.7354 10.0023 21.8027 11.0515 18.7661Z" fill="url(#paint4_linear_1369_19720)"/>
<path d="M11.2822 18.2678C11.2822 18.2678 5.61976 18.2286 4.06934 19.1398C4.06934 19.1398 8.25254 20.2102 10.91 19.0742L11.2822 18.2678Z" fill="url(#paint5_linear_1369_19720)"/>
<g style="mix-blend-mode:multiply" opacity="0.3">
<path d="M4.18653 19.3911C4.18098 19.1505 6.83853 20.0176 7.37958 20.1253C7.92058 20.233 7.83664 23.2887 7.60286 23.6283C7.36903 23.9678 4.22914 21.2332 4.18653 19.3911Z" fill="url(#paint6_linear_1369_19720)"/>
</g>
<g style="mix-blend-mode:soft-light" opacity="0.5">
<path d="M10.8043 19.5225C10.8043 19.5225 9.65834 20.5962 9.22737 22.1353C8.79636 23.6743 9.61981 24.8282 9.61981 24.8282C9.61981 24.8282 9.93126 22.2479 10.8043 19.5225Z" fill="white"/>
</g>
<path d="M7.86602 18.3896C7.86602 18.3896 8.64406 19.2567 7.2023 19.5814C5.76053 19.9061 4.2998 19.1938 4.2998 19.1938C4.2998 19.1938 5.35143 18.7903 7.86602 18.3896Z" fill="url(#paint7_linear_1369_19720)"/>
<path d="M27.6367 42.5873C39.3673 42.5873 48.8769 33.0538 48.8769 21.2936C48.8769 9.53349 39.3673 0 27.6367 0C15.906 0 6.39648 9.53349 6.39648 21.2936C6.39648 33.0538 15.906 42.5873 27.6367 42.5873Z" fill="url(#paint8_linear_1369_19720)"/>
<path d="M27.6365 41.9715C39.0278 41.9715 48.2623 32.7138 48.2623 21.2939C48.2623 9.87391 39.0278 0.616211 27.6365 0.616211C16.2452 0.616211 7.01074 9.87391 7.01074 21.2939C7.01074 32.7138 16.2452 41.9715 27.6365 41.9715Z" fill="url(#paint9_linear_1369_19720)"/>
<path d="M43.343 21.2938C43.343 29.9915 36.3102 37.0403 27.6373 37.0403C18.9645 37.0403 11.9316 29.9915 11.9316 21.2938C11.9316 12.5961 18.9645 5.54736 27.6373 5.54736C36.3102 5.54736 43.343 12.5961 43.343 21.2938Z" fill="url(#paint10_linear_1369_19720)" stroke="url(#paint11_linear_1369_19720)"/>
<g style="mix-blend-mode:soft-light" opacity="0.5">
<path d="M10.422 10.4878C10.1073 11.9936 13.2913 12.0774 16.2164 9.76721C19.1415 7.45702 21.1673 5.10563 28.2739 5.06144C35.3805 5.0172 39.201 9.44888 41.402 12.7168C43.603 15.9847 46.783 14.3941 47.0347 13.7966C47.2865 13.1991 41.2925 0.616211 28.7205 0.616211C16.1484 0.616211 10.5489 9.8808 10.422 10.4878Z" fill="white"/>
</g>
<g style="mix-blend-mode:soft-light" opacity="0.8">
<path d="M11.9482 34.7139C11.9482 34.7139 18.0389 41.1329 27.6362 41.1329C37.2335 41.1329 43.3262 34.7139 43.3262 34.7139C43.3262 34.7139 37.8003 41.9712 27.6362 41.9712C17.4721 41.9712 11.9482 34.7139 11.9482 34.7139Z" fill="white"/>
</g>
<g style="mix-blend-mode:multiply" opacity="0.3">
<path d="M12.6953 14.9911C12.6953 14.9911 16.4776 7.42005 27.636 7.42005C38.7945 7.42005 43.1671 16.6822 43.1671 16.6822C43.1671 16.6822 38.9358 5.06152 28.2736 5.06152C17.6114 5.06152 12.6953 14.9911 12.6953 14.9911Z" fill="url(#paint12_linear_1369_19720)"/>
</g>
<g style="mix-blend-mode:multiply" opacity="0.3">
<path d="M43.8418 15.7664C43.4633 15.426 44.7081 21.2939 43.8418 25.4854C42.9755 29.6768 46.6554 28.4193 47.6725 24.3677C48.6894 20.316 47.2958 14.8581 46.5293 14.7125C45.7628 14.5668 43.8418 15.7664 43.8418 15.7664Z" fill="url(#paint13_linear_1369_19720)"/>
</g>
<path d="M17.3379 33.8389C17.3379 33.8389 21.3047 36.767 27.6367 36.9766C33.9688 37.1862 37.3633 34.2886 37.3633 34.2886C37.3633 34.2886 33.4949 37.6154 27.9309 37.5318C22.3668 37.4481 17.3379 33.8389 17.3379 33.8389Z" fill="url(#paint14_linear_1369_19720)"/>
<path d="M27.4201 27.4608C26.5035 27.4608 25.6891 27.3037 24.977 26.9893C24.2686 26.6711 23.7118 26.2336 23.3065 25.6768C22.9012 25.1199 22.6967 24.4798 22.6929 23.7563H25.8747C25.8785 23.9798 25.9467 24.1805 26.0792 24.3586C26.2156 24.5328 26.4012 24.6692 26.6361 24.7677C26.8709 24.8662 27.1398 24.9154 27.4429 24.9154C27.7345 24.9154 27.9921 24.8643 28.2156 24.762C28.4391 24.6559 28.6133 24.5101 28.7383 24.3245C28.8633 24.1389 28.9239 23.9268 28.9201 23.6881C28.9239 23.4533 28.852 23.2449 28.7042 23.0631C28.5603 22.8813 28.3576 22.7393 28.0963 22.637C27.8349 22.5347 27.5338 22.4836 27.1929 22.4836H26.0111V20.3018H27.1929C27.5073 20.3018 27.7838 20.2506 28.0224 20.1483C28.2648 20.0461 28.4523 19.904 28.5849 19.7222C28.7213 19.5404 28.7876 19.3321 28.7838 19.0972C28.7876 18.8699 28.7326 18.6692 28.619 18.4949C28.5054 18.3207 28.3463 18.1843 28.1417 18.0858C27.941 17.9874 27.708 17.9381 27.4429 17.9381C27.155 17.9381 26.8974 17.9893 26.6701 18.0915C26.4467 18.1938 26.2705 18.3358 26.1417 18.5177C26.013 18.6995 25.9467 18.9078 25.9429 19.1427H22.9201C22.9239 18.4305 23.119 17.8018 23.5054 17.2563C23.8955 16.7108 24.4296 16.2828 25.1076 15.9722C25.7857 15.6616 26.5641 15.5063 27.4429 15.5063C28.3027 15.5063 29.0622 15.6521 29.7213 15.9438C30.3842 16.2355 30.9012 16.637 31.2724 17.1483C31.6474 17.6559 31.833 18.2374 31.8292 18.8927C31.8368 19.5442 31.6133 20.0783 31.1588 20.4949C30.708 20.9116 30.1361 21.1578 29.4429 21.2336V21.3245C30.3823 21.4268 31.0887 21.7146 31.5622 22.1881C32.0357 22.6578 32.2686 23.2487 32.2611 23.9608C32.2648 24.6427 32.0603 25.2468 31.6474 25.7733C31.2383 26.2999 30.6683 26.7127 29.9372 27.012C29.2099 27.3112 28.3709 27.4608 27.4201 27.4608Z" fill="white"/>
<defs>
<linearGradient id="paint0_linear_1369_19720" x1="43.9482" y1="21.7508" x2="50.9998" y2="21.7508" gradientUnits="userSpaceOnUse">
<stop stop-color="#68421D"/>
<stop offset="0.21231" stop-color="#D59647"/>
<stop offset="0.27578" stop-color="#DBA666"/>
<stop offset="0.33354" stop-color="#E0B47E"/>
<stop offset="0.49686" stop-color="#E8C190"/>
<stop offset="0.65892" stop-color="#E0B580"/>
<stop offset="0.71027" stop-color="#DCAB6D"/>
<stop offset="0.8304" stop-color="#D59647"/>
<stop offset="0.86371" stop-color="#BD833D"/>
<stop offset="0.95606" stop-color="#805426"/>
<stop offset="1" stop-color="#68421D"/>
</linearGradient>
<linearGradient id="paint1_linear_1369_19720" x1="43.7188" y1="18.9321" x2="50.9317" y2="18.9321" gradientUnits="userSpaceOnUse">
<stop stop-color="#68421D"/>
<stop offset="0.21231" stop-color="#D59647"/>
<stop offset="0.27578" stop-color="#DBA666"/>
<stop offset="0.33354" stop-color="#E0B47E"/>
<stop offset="0.49686" stop-color="#E8C190"/>
<stop offset="0.65892" stop-color="#E0B580"/>
<stop offset="0.71027" stop-color="#DCAB6D"/>
<stop offset="0.8304" stop-color="#D59647"/>
<stop offset="0.86371" stop-color="#BD833D"/>
<stop offset="0.95606" stop-color="#805426"/>
<stop offset="1" stop-color="#68421D"/>
</linearGradient>
<linearGradient id="paint2_linear_1369_19720" x1="47.2168" y1="21.5031" x2="50.8144" y2="21.5031" gradientUnits="userSpaceOnUse">
<stop stop-color="#68421D"/>
<stop offset="0.21231" stop-color="#D59647"/>
<stop offset="0.27578" stop-color="#DBA666"/>
<stop offset="0.33354" stop-color="#E0B47E"/>
<stop offset="0.49686" stop-color="#E8C190"/>
<stop offset="0.65892" stop-color="#E0B580"/>
<stop offset="0.71027" stop-color="#DCAB6D"/>
<stop offset="0.8304" stop-color="#D59647"/>
<stop offset="0.86371" stop-color="#BD833D"/>
<stop offset="0.95606" stop-color="#805426"/>
<stop offset="1" stop-color="#68421D"/>
</linearGradient>
<linearGradient id="paint3_linear_1369_19720" x1="46.9248" y1="19.0279" x2="50.7006" y2="19.0279" gradientUnits="userSpaceOnUse">
<stop stop-color="#68421D"/>
<stop offset="0.21231" stop-color="#D59647"/>
<stop offset="0.27578" stop-color="#DBA666"/>
<stop offset="0.33354" stop-color="#E0B47E"/>
<stop offset="0.49686" stop-color="#E8C190"/>
<stop offset="0.65892" stop-color="#E0B580"/>
<stop offset="0.71027" stop-color="#DCAB6D"/>
<stop offset="0.8304" stop-color="#D59647"/>
<stop offset="0.86371" stop-color="#BD833D"/>
<stop offset="0.95606" stop-color="#805426"/>
<stop offset="1" stop-color="#68421D"/>
</linearGradient>
<linearGradient id="paint4_linear_1369_19720" x1="4" y1="21.7508" x2="11.0515" y2="21.7508" gradientUnits="userSpaceOnUse">
<stop stop-color="#68421D"/>
<stop offset="0.21231" stop-color="#D59647"/>
<stop offset="0.27578" stop-color="#DBA666"/>
<stop offset="0.33354" stop-color="#E0B47E"/>
<stop offset="0.49686" stop-color="#E8C190"/>
<stop offset="0.65892" stop-color="#E0B580"/>
<stop offset="0.71027" stop-color="#DCAB6D"/>
<stop offset="0.8304" stop-color="#D59647"/>
<stop offset="0.86371" stop-color="#BD833D"/>
<stop offset="0.95606" stop-color="#805426"/>
<stop offset="1" stop-color="#68421D"/>
</linearGradient>
<linearGradient id="paint5_linear_1369_19720" x1="4.06934" y1="18.9321" x2="11.2822" y2="18.9321" gradientUnits="userSpaceOnUse">
<stop stop-color="#68421D"/>
<stop offset="0.21231" stop-color="#D59647"/>
<stop offset="0.27578" stop-color="#DBA666"/>
<stop offset="0.33354" stop-color="#E0B47E"/>
<stop offset="0.49686" stop-color="#E8C190"/>
<stop offset="0.65892" stop-color="#E0B580"/>
<stop offset="0.71027" stop-color="#DCAB6D"/>
<stop offset="0.8304" stop-color="#D59647"/>
<stop offset="0.86371" stop-color="#BD833D"/>
<stop offset="0.95606" stop-color="#805426"/>
<stop offset="1" stop-color="#68421D"/>
</linearGradient>
<linearGradient id="paint6_linear_1369_19720" x1="4.18652" y1="21.5031" x2="7.78416" y2="21.5031" gradientUnits="userSpaceOnUse">
<stop stop-color="#68421D"/>
<stop offset="0.21231" stop-color="#D59647"/>
<stop offset="0.27578" stop-color="#DBA666"/>
<stop offset="0.33354" stop-color="#E0B47E"/>
<stop offset="0.49686" stop-color="#E8C190"/>
<stop offset="0.65892" stop-color="#E0B580"/>
<stop offset="0.71027" stop-color="#DCAB6D"/>
<stop offset="0.8304" stop-color="#D59647"/>
<stop offset="0.86371" stop-color="#BD833D"/>
<stop offset="0.95606" stop-color="#805426"/>
<stop offset="1" stop-color="#68421D"/>
</linearGradient>
<linearGradient id="paint7_linear_1369_19720" x1="4.2998" y1="19.0279" x2="8.07565" y2="19.0279" gradientUnits="userSpaceOnUse">
<stop stop-color="#68421D"/>
<stop offset="0.21231" stop-color="#D59647"/>
<stop offset="0.27578" stop-color="#DBA666"/>
<stop offset="0.33354" stop-color="#E0B47E"/>
<stop offset="0.49686" stop-color="#E8C190"/>
<stop offset="0.65892" stop-color="#E0B580"/>
<stop offset="0.71027" stop-color="#DCAB6D"/>
<stop offset="0.8304" stop-color="#D59647"/>
<stop offset="0.86371" stop-color="#BD833D"/>
<stop offset="0.95606" stop-color="#805426"/>
<stop offset="1" stop-color="#68421D"/>
</linearGradient>
<linearGradient id="paint8_linear_1369_19720" x1="6.39648" y1="21.2936" x2="48.8769" y2="21.2936" gradientUnits="userSpaceOnUse">
<stop stop-color="#68421D"/>
<stop offset="0.21231" stop-color="#D59647"/>
<stop offset="0.27578" stop-color="#DBA666"/>
<stop offset="0.33354" stop-color="#E0B47E"/>
<stop offset="0.49686" stop-color="#E8C190"/>
<stop offset="0.65892" stop-color="#E0B580"/>
<stop offset="0.71027" stop-color="#DCAB6D"/>
<stop offset="0.8304" stop-color="#D59647"/>
<stop offset="0.86371" stop-color="#BD833D"/>
<stop offset="0.95606" stop-color="#805426"/>
<stop offset="1" stop-color="#68421D"/>
</linearGradient>
<linearGradient id="paint9_linear_1369_19720" x1="7.01074" y1="21.2939" x2="48.2623" y2="21.2939" gradientUnits="userSpaceOnUse">
<stop stop-color="#68421D"/>
<stop offset="0.21231" stop-color="#D59647"/>
<stop offset="0.27578" stop-color="#DBA666"/>
<stop offset="0.33354" stop-color="#E0B47E"/>
<stop offset="0.49686" stop-color="#E8C190"/>
<stop offset="0.65892" stop-color="#E0B580"/>
<stop offset="0.71027" stop-color="#DCAB6D"/>
<stop offset="0.8304" stop-color="#D59647"/>
<stop offset="0.86371" stop-color="#BD833D"/>
<stop offset="0.95606" stop-color="#805426"/>
<stop offset="1" stop-color="#68421D"/>
</linearGradient>
<linearGradient id="paint10_linear_1369_19720" x1="11.4316" y1="21.2938" x2="43.843" y2="21.2938" gradientUnits="userSpaceOnUse">
<stop stop-color="#68421D"/>
<stop offset="1" stop-color="#68421D"/>
</linearGradient>
<linearGradient id="paint11_linear_1369_19720" x1="11.4316" y1="21.2938" x2="43.843" y2="21.2938" gradientUnits="userSpaceOnUse">
<stop stop-color="#68421D"/>
<stop offset="0.21231" stop-color="#D59647"/>
<stop offset="0.27578" stop-color="#DBA666"/>
<stop offset="0.33354" stop-color="#E0B47E"/>
<stop offset="0.49686" stop-color="#E8C190"/>
<stop offset="0.65892" stop-color="#E0B580"/>
<stop offset="0.71027" stop-color="#DCAB6D"/>
<stop offset="0.8304" stop-color="#D59647"/>
<stop offset="0.86371" stop-color="#BD833D"/>
<stop offset="0.95606" stop-color="#805426"/>
<stop offset="1" stop-color="#68421D"/>
</linearGradient>
<linearGradient id="paint12_linear_1369_19720" x1="12.6953" y1="10.8718" x2="43.1671" y2="10.8718" gradientUnits="userSpaceOnUse">
<stop stop-color="#68421D"/>
<stop offset="0.21231" stop-color="#D59647"/>
<stop offset="0.27578" stop-color="#DBA666"/>
<stop offset="0.33354" stop-color="#E0B47E"/>
<stop offset="0.49686" stop-color="#E8C190"/>
<stop offset="0.65892" stop-color="#E0B580"/>
<stop offset="0.71027" stop-color="#DCAB6D"/>
<stop offset="0.8304" stop-color="#D59647"/>
<stop offset="0.86371" stop-color="#BD833D"/>
<stop offset="0.95606" stop-color="#805426"/>
<stop offset="1" stop-color="#68421D"/>
</linearGradient>
<linearGradient id="paint13_linear_1369_19720" x1="43.7109" y1="21.3905" x2="48.0307" y2="21.3905" gradientUnits="userSpaceOnUse">
<stop stop-color="#68421D"/>
<stop offset="0.21231" stop-color="#D59647"/>
<stop offset="0.27578" stop-color="#DBA666"/>
<stop offset="0.33354" stop-color="#E0B47E"/>
<stop offset="0.49686" stop-color="#E8C190"/>
<stop offset="0.65892" stop-color="#E0B580"/>
<stop offset="0.71027" stop-color="#DCAB6D"/>
<stop offset="0.8304" stop-color="#D59647"/>
<stop offset="0.86371" stop-color="#BD833D"/>
<stop offset="0.95606" stop-color="#805426"/>
<stop offset="1" stop-color="#68421D"/>
</linearGradient>
<linearGradient id="paint14_linear_1369_19720" x1="17.3379" y1="35.6861" x2="37.3633" y2="35.6861" gradientUnits="userSpaceOnUse">
<stop stop-color="#68421D"/>
<stop offset="0.21231" stop-color="#D59647"/>
<stop offset="0.27578" stop-color="#DBA666"/>
<stop offset="0.33354" stop-color="#E0B47E"/>
<stop offset="0.49686" stop-color="#E8C190"/>
<stop offset="0.65892" stop-color="#E0B580"/>
<stop offset="0.71027" stop-color="#DCAB6D"/>
<stop offset="0.8304" stop-color="#D59647"/>
<stop offset="0.86371" stop-color="#BD833D"/>
<stop offset="0.95606" stop-color="#805426"/>
<stop offset="1" stop-color="#68421D"/>
</linearGradient>
</defs>
</svg>
