<svg width="61" height="46" viewBox="0 0 61 46" fill="none" xmlns="http://www.w3.org/2000/svg">
<g clip-path="url(#clip0_1369_19558)">
<path d="M44.6484 31.4341C44.6484 31.4341 50.4513 31.6901 50.7641 31.7617C51.0769 31.8332 50.1302 33.9164 48.7616 35.1829C47.3929 36.4494 45.8311 36.6619 45.8311 36.6619C45.8311 36.6619 45.5673 34.0935 44.6484 31.4341Z" fill="url(#paint0_linear_1369_19558)"/>
<path d="M44.4473 30.9978C44.4473 30.9978 49.4064 30.9634 50.7642 31.7615C50.7642 31.7615 47.1006 32.6989 44.7732 31.704L44.4473 30.9978Z" fill="url(#paint1_linear_1369_19558)"/>
<g style="mix-blend-mode:multiply" opacity="0.3">
<path d="M50.6615 31.9816C50.6664 31.7709 48.3389 32.5303 47.8651 32.6246C47.3912 32.7189 47.4648 35.3951 47.6695 35.6925C47.8743 35.9898 50.6242 33.5948 50.6615 31.9816Z" fill="url(#paint2_linear_1369_19558)"/>
</g>
<g style="mix-blend-mode:soft-light" opacity="0.5">
<path d="M44.8652 32.0967C44.8652 32.0967 45.8689 33.037 46.2463 34.3849C46.6238 35.7328 45.9026 36.7434 45.9026 36.7434C45.9026 36.7434 45.6298 34.4836 44.8652 32.0967Z" fill="white"/>
</g>
<path d="M47.4385 31.1045C47.4385 31.1045 46.7571 31.8638 48.0198 32.1482C49.2824 32.4326 50.5617 31.8088 50.5617 31.8088C50.5617 31.8088 49.6407 31.4554 47.4385 31.1045Z" fill="#FFE218"/>
<path d="M38.8818 10.7749C43.5526 12.668 43.3962 5.69355 44.0065 4.95939C44.6168 4.22523 59.6635 0.187381 60.3958 0.0650364C61.1281 -0.0573563 58.443 10.3432 57.5886 11.6892C56.7343 13.0351 45.1907 16.0909 45.1907 16.0909C45.1907 16.0909 43.121 12.9807 38.8818 10.7749Z" fill="url(#paint3_linear_1369_19558)"/>
<path d="M38.5322 10.5927C38.5322 10.5927 42.3018 10.6798 42.6985 4.68421C42.6985 4.68421 53.3781 0.952269 55.3919 0.371061C57.4058 -0.210147 60.3961 0.0651523 60.3961 0.0651523L44.3767 5.05129C44.3767 5.05129 43.7359 12.454 39.4336 11.0163L38.5322 10.5927Z" fill="url(#paint4_linear_1369_19558)"/>
<path d="M42.6985 4.68408L44.3767 5.05116C44.3767 5.05116 44.157 12.8161 39.4336 11.0162L38.5322 10.5925C38.5322 10.5925 42.6374 10.2209 42.6985 4.68408Z" fill="url(#paint5_linear_1369_19558)"/>
<path d="M45.5557 4.68411C45.5557 4.68411 47.3971 3.15461 51.0587 1.96164C54.7203 0.768609 57.5186 0.960601 57.5186 0.960601C57.5186 0.960601 46.4402 4.40881 45.5557 4.68411Z" fill="#FFE218"/>
<path d="M42.0156 12.8153C42.0156 12.8153 45.5052 11.5057 45.7188 6.27483C45.7188 6.27483 58.1682 2.35933 58.5649 2.32876C58.9615 2.29815 57.5185 6.9189 57.5185 6.9189L56.9171 7.12223C56.9171 7.12223 58.2548 3.58291 58.0156 3.06288C57.7764 2.54289 46.146 6.55013 46.146 6.55013C46.146 6.55013 46.146 11.781 42.3879 13.1228L42.0156 12.8153Z" fill="url(#paint6_linear_1369_19558)"/>
<g style="mix-blend-mode:multiply" opacity="0.66">
<path d="M45.7139 6.39284C45.7139 6.39284 46.4214 6.40781 49.795 5.32415C53.1687 4.24048 57.983 2.48291 57.983 2.48291C57.983 2.48291 45.998 6.06746 45.7139 6.39284Z" fill="url(#paint7_linear_1369_19558)"/>
</g>
<path d="M47.501 6.08934C47.501 6.08934 55.9717 4.20438 57.3143 3.08691C57.3143 3.08691 51.7695 4.51959 47.501 6.08934Z" fill="url(#paint8_linear_1369_19558)"/>
<path d="M43.9648 21.9209C43.9648 21.9209 46.4822 22.1504 47.3518 17.6995C49.7018 16.7819 60.5763 14.072 60.9454 14.2582C61.4306 14.5029 58.5654 25.9588 57.4211 27.2895C56.4154 28.459 48.3348 29.6509 48.3348 29.6509L43.9648 21.9209Z" fill="url(#paint9_linear_1369_19558)"/>
<path d="M60.9454 14.2583C60.9454 14.2583 58.5501 13.9524 57.2685 14.0748C56.3249 14.1649 46.1465 16.7055 46.1465 16.7055L47.3517 17.6997C47.3517 17.6997 58.1076 14.8395 60.9454 14.2583Z" fill="url(#paint10_linear_1369_19558)"/>
<path d="M46.1468 16.7056C46.1468 16.7056 45.4935 21.4391 42.9824 20.7701L43.9651 21.9211C43.9651 21.9211 47.1233 22.2423 47.3521 17.6997L46.1468 16.7056Z" fill="url(#paint11_linear_1369_19558)"/>
<path d="M44.9912 23.9548C44.9912 23.9548 49.1728 23.0053 49.4508 19.0842C49.4508 19.0842 58.4946 17.0184 58.7499 17.2323C59.0044 17.4457 56.7995 24.6095 56.3191 25.4062C55.8364 26.2068 47.2535 27.4383 47.2535 27.4383L46.877 26.9933C46.877 26.9933 54.8448 25.8632 55.7288 25.0207C56.6048 24.186 57.8916 18.6119 57.8926 18.1584C57.8936 17.7047 50.5649 19.242 50.2856 19.4684C50.0055 19.6955 48.9456 23.7789 45.3629 24.2445L44.9912 23.9548Z" fill="url(#paint12_linear_1369_19558)"/>
<g style="mix-blend-mode:multiply" opacity="0.66">
<path d="M49.4516 19.0842C49.4516 19.0842 49.0707 19.6126 51.9098 19.0326C54.6666 18.4693 58.0443 17.876 58.3445 17.6608C58.6438 17.4463 58.7508 17.2324 58.7508 17.2324C58.7508 17.2324 57.6156 17.3184 54.4807 17.9762C51.2375 18.6568 49.4516 19.0842 49.4516 19.0842Z" fill="url(#paint13_linear_1369_19558)"/>
</g>
<path d="M47.2536 27.4383C47.2536 27.4383 47.1576 27.2471 47.2537 27.061C47.3498 26.8751 52.5177 26.1475 53.842 25.8368C55.1479 25.5305 55.9028 25.6801 55.9028 25.6801C55.9028 25.6801 54.2573 26.2776 51.4839 26.7466C48.6273 27.2297 47.2536 27.4383 47.2536 27.4383Z" fill="url(#paint14_linear_1369_19558)"/>
<path d="M47.3525 17.6995C47.3525 17.6995 48.2488 16.6747 52.1106 15.3899C55.9725 14.1052 59.538 14.5751 59.538 14.5751L47.3525 17.6995Z" fill="#FFE218"/>
<g style="mix-blend-mode:soft-light" opacity="0.79">
<path d="M48.4268 29.6375C48.4268 29.6375 55.2649 27.9071 56.5744 27.1751C57.884 26.4432 59.1387 22.7437 59.1387 22.7437C59.1387 22.7437 58.2221 26.395 57.4211 27.2898C56.6202 28.1846 48.4268 29.6375 48.4268 29.6375Z" fill="white"/>
</g>
<path d="M50.04 19.9423C50.4418 19.4039 57.8932 18.1585 57.8932 18.1585C57.8932 18.1585 57.3751 17.9436 53.9666 18.6024C50.5582 19.2612 50.1494 19.7005 50.04 19.9423Z" fill="url(#paint15_linear_1369_19558)"/>
<path d="M15.8377 31.4341C15.8377 31.4341 10.0349 31.6901 9.72207 31.7617C9.40932 31.8332 10.3559 33.9164 11.7246 35.1829C13.0933 36.4494 14.655 36.6619 14.655 36.6619C14.655 36.6619 14.9189 34.0935 15.8377 31.4341Z" fill="url(#paint16_linear_1369_19558)"/>
<path d="M16.0396 30.9978C16.0396 30.9978 11.0805 30.9634 9.72266 31.7615C9.72266 31.7615 13.3863 32.6989 15.7137 31.704L16.0396 30.9978Z" fill="url(#paint17_linear_1369_19558)"/>
<g style="mix-blend-mode:multiply" opacity="0.3">
<path d="M9.8252 31.9816C9.82034 31.7709 12.1478 32.5303 12.6216 32.6246C13.0954 32.7189 13.0219 35.3951 12.8172 35.6925C12.6124 35.9898 9.86252 33.5948 9.8252 31.9816Z" fill="url(#paint18_linear_1369_19558)"/>
</g>
<g style="mix-blend-mode:soft-light" opacity="0.5">
<path d="M15.6212 32.0967C15.6212 32.0967 14.6176 33.037 14.2402 34.3849C13.8627 35.7328 14.5839 36.7434 14.5839 36.7434C14.5839 36.7434 14.8566 34.4836 15.6212 32.0967Z" fill="white"/>
</g>
<path d="M13.0481 31.1045C13.0481 31.1045 13.7294 31.8638 12.4668 32.1482C11.2041 32.4326 9.9248 31.8088 9.9248 31.8088C9.9248 31.8088 10.8458 31.4554 13.0481 31.1045Z" fill="#FFE218"/>
<path d="M22.1176 10.7749C17.4468 12.668 17.6032 5.69355 16.9929 4.95939C16.3827 4.22523 1.33589 0.187381 0.603626 0.0650364C-0.128695 -0.0573563 2.55646 10.3432 3.41082 11.6892C4.26518 13.0351 15.8087 16.0909 15.8087 16.0909C15.8087 16.0909 17.8785 12.9807 22.1176 10.7749Z" fill="url(#paint19_linear_1369_19558)"/>
<path d="M22.4674 10.5927C22.4674 10.5927 18.6978 10.6798 18.3011 4.68421C18.3011 4.68421 7.62152 0.952269 5.60767 0.371061C3.59376 -0.210147 0.603516 0.0651523 0.603516 0.0651523L16.6229 5.05129C16.6229 5.05129 17.2637 12.454 21.566 11.0163L22.4674 10.5927Z" fill="url(#paint20_linear_1369_19558)"/>
<path d="M18.3012 4.68408L16.623 5.05116C16.623 5.05116 16.8427 12.8161 21.5661 11.0162L22.4675 10.5925C22.4675 10.5925 18.3623 10.2209 18.3012 4.68408Z" fill="url(#paint21_linear_1369_19558)"/>
<path d="M15.4434 4.68411C15.4434 4.68411 13.6019 3.15461 9.94033 1.96164C6.27873 0.768609 3.48047 0.960601 3.48047 0.960601C3.48047 0.960601 14.5589 4.40881 15.4434 4.68411Z" fill="#FFE218"/>
<path d="M18.9835 12.8153C18.9835 12.8153 15.4939 11.5057 15.2803 6.27483C15.2803 6.27483 2.83093 2.35933 2.43423 2.32876C2.03758 2.29815 3.48063 6.9189 3.48063 6.9189L4.08197 7.12223C4.08197 7.12223 2.74425 3.58291 2.98349 3.06288C3.22269 2.54289 14.8531 6.55013 14.8531 6.55013C14.8531 6.55013 14.8531 11.781 18.6112 13.1228L18.9835 12.8153Z" fill="url(#paint22_linear_1369_19558)"/>
<g style="mix-blend-mode:multiply" opacity="0.66">
<path d="M15.2866 6.39284C15.2866 6.39284 14.5792 6.40781 11.2055 5.32415C7.83187 4.24048 3.01758 2.48291 3.01758 2.48291C3.01758 2.48291 15.0025 6.06746 15.2866 6.39284Z" fill="url(#paint23_linear_1369_19558)"/>
</g>
<path d="M13.4988 6.08934C13.4988 6.08934 5.02815 4.20438 3.68555 3.08691C3.68555 3.08691 9.23032 4.51959 13.4988 6.08934Z" fill="url(#paint24_linear_1369_19558)"/>
<path d="M17.0354 21.9209C17.0354 21.9209 14.518 22.1504 13.6484 17.6995C11.2985 16.7819 0.423852 14.072 0.0547936 14.2582C-0.43036 14.5029 2.43481 25.9588 3.57909 27.2895C4.58476 28.459 12.6654 29.6509 12.6654 29.6509L17.0354 21.9209H17.0354Z" fill="url(#paint25_linear_1369_19558)"/>
<path d="M0.0546875 14.2583C0.0546875 14.2583 2.44997 13.9524 3.73151 14.0748C4.67515 14.1649 14.8536 16.7055 14.8536 16.7055L13.6483 17.6997C13.6483 17.6997 2.89241 14.8395 0.0546875 14.2583Z" fill="url(#paint26_linear_1369_19558)"/>
<path d="M14.8537 16.7056C14.8537 16.7056 15.5071 21.4391 18.0181 20.7701L17.0354 21.9211C17.0354 21.9211 13.8772 22.2423 13.6484 17.6997L14.8537 16.7056Z" fill="url(#paint27_linear_1369_19558)"/>
<path d="M16.0086 23.9548C16.0086 23.9548 11.827 23.0053 11.549 19.0842C11.549 19.0842 2.5051 17.0184 2.24987 17.2323C1.99536 17.4457 4.20029 24.6095 4.68066 25.4062C5.1634 26.2068 13.7462 27.4383 13.7462 27.4383L14.1228 26.9933C14.1228 26.9933 6.15496 25.8632 5.27095 25.0207C4.39504 24.186 3.10814 18.6119 3.10718 18.1584C3.10616 17.7047 10.4349 19.242 10.7142 19.4684C10.9943 19.6955 12.0542 23.7789 15.6369 24.2445L16.0086 23.9548H16.0086Z" fill="url(#paint28_linear_1369_19558)"/>
<g style="mix-blend-mode:multiply" opacity="0.66">
<path d="M11.5491 19.0842C11.5491 19.0842 11.93 19.6126 9.091 19.0326C6.33414 18.4693 2.95643 17.876 2.65621 17.6608C2.35696 17.4463 2.25 17.2324 2.25 17.2324C2.25 17.2324 3.3852 17.3184 6.5201 17.9762C9.76322 18.6568 11.5491 19.0842 11.5491 19.0842Z" fill="url(#paint29_linear_1369_19558)"/>
</g>
<path d="M13.7469 27.4383C13.7469 27.4383 13.8429 27.2471 13.7467 27.061C13.6507 26.8751 8.48277 26.1475 7.15852 25.8368C5.85264 25.5305 5.09766 25.6801 5.09766 25.6801C5.09766 25.6801 6.74323 26.2776 9.5166 26.7466C12.3732 27.2297 13.7469 27.4383 13.7469 27.4383Z" fill="url(#paint30_linear_1369_19558)"/>
<path d="M13.6483 17.6995C13.6483 17.6995 12.752 16.6747 8.89016 15.3899C5.02835 14.1052 1.46289 14.5751 1.46289 14.5751L13.6483 17.6995Z" fill="#FFE218"/>
<g style="mix-blend-mode:soft-light" opacity="0.79">
<path d="M12.5733 29.6375C12.5733 29.6375 5.73516 27.9071 4.42561 27.1751C3.11605 26.4432 1.86133 22.7437 1.86133 22.7437C1.86133 22.7437 2.77791 26.395 3.57888 27.2898C4.37981 28.1846 12.5733 29.6375 12.5733 29.6375H12.5733Z" fill="white"/>
</g>
<path d="M10.9606 19.9423C10.5589 19.4039 3.10742 18.1585 3.10742 18.1585C3.10742 18.1585 3.62557 17.9436 7.03402 18.6024C10.4425 19.2612 10.8513 19.7005 10.9606 19.9423Z" fill="url(#paint31_linear_1369_19558)"/>
<path d="M30.3626 46C40.6362 46 48.9645 37.6507 48.9645 27.3513C48.9645 17.0519 40.6362 8.70264 30.3626 8.70264C20.0891 8.70264 11.7607 17.0519 11.7607 27.3513C11.7607 37.6507 20.0891 46 30.3626 46Z" fill="url(#paint32_linear_1369_19558)"/>
<path d="M30.3626 45.4606C40.3389 45.4606 48.4264 37.3528 48.4264 27.3514C48.4264 17.35 40.3389 9.24219 30.3626 9.24219C20.3863 9.24219 12.2988 17.35 12.2988 27.3514C12.2988 37.3528 20.3863 45.4606 30.3626 45.4606Z" fill="url(#paint33_linear_1369_19558)"/>
<path d="M44.0554 27.3515C44.0554 34.9347 37.9238 41.0799 30.3627 41.0799C22.8016 41.0799 16.6699 34.9347 16.6699 27.3515C16.6699 19.7683 22.8016 13.623 30.3627 13.623C37.9238 13.623 44.0554 19.7683 44.0554 27.3515Z" fill="url(#paint34_linear_1369_19558)" stroke="url(#paint35_linear_1369_19558)"/>
<g style="mix-blend-mode:soft-light" opacity="0.5">
<path d="M15.2865 17.8876C15.0109 19.2063 17.7994 19.2797 20.3611 17.2565C22.9229 15.2333 24.6971 13.174 30.921 13.1353C37.1448 13.0965 40.4908 16.9777 42.4184 19.8397C44.3459 22.7018 47.131 21.3086 47.3515 20.7854C47.5719 20.2621 42.3225 9.24219 31.3121 9.24219C20.3016 9.24219 15.3977 17.356 15.2865 17.8876Z" fill="white"/>
</g>
<g style="mix-blend-mode:soft-light" opacity="0.8">
<path d="M16.623 39.1045C16.623 39.1045 21.9571 44.7262 30.3623 44.7262C38.7675 44.7262 44.1034 39.1045 44.1034 39.1045C44.1034 39.1045 39.2639 45.4603 30.3623 45.4603C21.4608 45.4603 16.623 39.1045 16.623 39.1045Z" fill="white"/>
</g>
<g style="mix-blend-mode:multiply" opacity="0.3">
<path d="M17.2773 21.8314C17.2773 21.8314 20.5898 15.2008 30.3622 15.2008C40.1347 15.2008 43.9641 23.3124 43.9641 23.3124C43.9641 23.3124 40.2584 13.1353 30.9206 13.1353C21.5828 13.1353 17.2773 21.8314 17.2773 21.8314Z" fill="url(#paint36_linear_1369_19558)"/>
</g>
<g style="mix-blend-mode:multiply" opacity="0.3">
<path d="M44.5551 22.5104C44.2236 22.2123 45.3138 27.3514 44.5551 31.0222C43.7964 34.693 47.0192 33.5917 47.9099 30.0433C48.8005 26.4949 47.58 21.7149 46.9087 21.5874C46.2374 21.4599 44.5551 22.5104 44.5551 22.5104Z" fill="url(#paint37_linear_1369_19558)"/>
</g>
<path d="M21.3438 38.3384C21.3438 38.3384 24.8179 40.9028 30.3633 41.0863C35.9089 41.2699 38.8817 38.7322 38.8817 38.7322C38.8817 38.7322 35.4939 41.6458 30.6209 41.5726C25.748 41.4993 21.3438 38.3384 21.3438 38.3384Z" fill="url(#paint38_linear_1369_19558)"/>
<path style="mix-blend-mode:color-dodge" d="M50.9592 2.20114C50.8791 1.90879 52.3372 1.2529 54.2157 0.736204C56.0942 0.219511 57.6819 0.0376409 57.7619 0.329988C57.8419 0.622384 56.384 1.27823 54.5054 1.79492C52.6269 2.31162 51.0392 2.49349 50.9592 2.20114Z" fill="url(#paint39_radial_1369_19558)"/>
<path d="M32.4011 21.3636V33H29.242V24.2727H29.1738L26.6284 25.7955V23.1136L29.492 21.3636H32.4011Z" fill="white"/>
</g>
<defs>
<linearGradient id="paint0_linear_1369_19558" x1="44.6484" y1="34.048" x2="50.8241" y2="34.048" gradientUnits="userSpaceOnUse">
<stop stop-color="#ECAC1A"/>
<stop offset="0.31985" stop-color="#E7BA1E"/>
<stop offset="0.68015" stop-color="#FFE864"/>
<stop offset="1" stop-color="#F5C635"/>
</linearGradient>
<linearGradient id="paint1_linear_1369_19558" x1="44.4473" y1="31.5796" x2="50.7642" y2="31.5796" gradientUnits="userSpaceOnUse">
<stop stop-color="#ECAC1A"/>
<stop offset="0.31985" stop-color="#E7BA1E"/>
<stop offset="0.68015" stop-color="#FFE864"/>
<stop offset="1" stop-color="#F5C635"/>
</linearGradient>
<linearGradient id="paint2_linear_1369_19558" x1="47.5107" y1="33.8313" x2="50.6615" y2="33.8313" gradientUnits="userSpaceOnUse">
<stop stop-color="#ECAC1A"/>
<stop offset="0.31985" stop-color="#E7BA1E"/>
<stop offset="0.68015" stop-color="#FFE864"/>
<stop offset="1" stop-color="#F5C635"/>
</linearGradient>
<linearGradient id="paint3_linear_1369_19558" x1="38.8818" y1="8.07742" x2="60.5209" y2="8.07742" gradientUnits="userSpaceOnUse">
<stop stop-color="#ECAC1A"/>
<stop offset="0.31985" stop-color="#E7BA1E"/>
<stop offset="0.68015" stop-color="#FFE864"/>
<stop offset="1" stop-color="#F5C635"/>
</linearGradient>
<linearGradient id="paint4_linear_1369_19558" x1="38.5322" y1="5.60078" x2="60.3961" y2="5.60078" gradientUnits="userSpaceOnUse">
<stop stop-color="#ECAC1A"/>
<stop offset="0.31985" stop-color="#E7BA1E"/>
<stop offset="0.68015" stop-color="#FFE864"/>
<stop offset="1" stop-color="#F5C635"/>
</linearGradient>
<linearGradient id="paint5_linear_1369_19558" x1="38.5322" y1="7.98549" x2="44.3767" y2="7.98549" gradientUnits="userSpaceOnUse">
<stop stop-color="#ECAC1A"/>
<stop offset="0.31985" stop-color="#E7BA1E"/>
<stop offset="0.68015" stop-color="#FFE864"/>
<stop offset="1" stop-color="#F5C635"/>
</linearGradient>
<linearGradient id="paint6_linear_1369_19558" x1="42.0156" y1="7.72571" x2="58.6339" y2="7.72571" gradientUnits="userSpaceOnUse">
<stop stop-color="#ECAC1A"/>
<stop offset="0.31985" stop-color="#E7BA1E"/>
<stop offset="0.68015" stop-color="#FFE864"/>
<stop offset="1" stop-color="#F5C635"/>
</linearGradient>
<linearGradient id="paint7_linear_1369_19558" x1="45.7139" y1="4.43788" x2="57.983" y2="4.43788" gradientUnits="userSpaceOnUse">
<stop stop-color="#ECAC1A"/>
<stop offset="0.31985" stop-color="#E7BA1E"/>
<stop offset="0.68015" stop-color="#FFE864"/>
<stop offset="1" stop-color="#F5C635"/>
</linearGradient>
<linearGradient id="paint8_linear_1369_19558" x1="47.501" y1="4.58813" x2="57.3143" y2="4.58813" gradientUnits="userSpaceOnUse">
<stop stop-color="#ECAC1A"/>
<stop offset="0.31985" stop-color="#E7BA1E"/>
<stop offset="0.68015" stop-color="#FFE864"/>
<stop offset="1" stop-color="#F5C635"/>
</linearGradient>
<linearGradient id="paint9_linear_1369_19558" x1="43.9648" y1="21.95" x2="61.0002" y2="21.95" gradientUnits="userSpaceOnUse">
<stop stop-color="#ECAC1A"/>
<stop offset="0.31985" stop-color="#E7BA1E"/>
<stop offset="0.68015" stop-color="#FFE864"/>
<stop offset="1" stop-color="#F5C635"/>
</linearGradient>
<linearGradient id="paint10_linear_1369_19558" x1="46.1465" y1="15.8728" x2="60.9454" y2="15.8728" gradientUnits="userSpaceOnUse">
<stop stop-color="#ECAC1A"/>
<stop offset="0.31985" stop-color="#E7BA1E"/>
<stop offset="0.68015" stop-color="#FFE864"/>
<stop offset="1" stop-color="#F5C635"/>
</linearGradient>
<linearGradient id="paint11_linear_1369_19558" x1="42.9824" y1="19.3158" x2="47.3521" y2="19.3158" gradientUnits="userSpaceOnUse">
<stop stop-color="#ECAC1A"/>
<stop offset="0.31985" stop-color="#E7BA1E"/>
<stop offset="0.68015" stop-color="#FFE864"/>
<stop offset="1" stop-color="#F5C635"/>
</linearGradient>
<linearGradient id="paint12_linear_1369_19558" x1="44.9912" y1="22.3276" x2="58.7703" y2="22.3276" gradientUnits="userSpaceOnUse">
<stop stop-color="#ECAC1A"/>
<stop offset="0.31985" stop-color="#E7BA1E"/>
<stop offset="0.68015" stop-color="#FFE864"/>
<stop offset="1" stop-color="#F5C635"/>
</linearGradient>
<linearGradient id="paint13_linear_1369_19558" x1="49.4346" y1="18.2685" x2="58.7508" y2="18.2685" gradientUnits="userSpaceOnUse">
<stop stop-color="#ECAC1A"/>
<stop offset="0.31985" stop-color="#E7BA1E"/>
<stop offset="0.68015" stop-color="#FFE864"/>
<stop offset="1" stop-color="#F5C635"/>
</linearGradient>
<linearGradient id="paint14_linear_1369_19558" x1="47.2109" y1="26.5409" x2="55.9028" y2="26.5409" gradientUnits="userSpaceOnUse">
<stop stop-color="#ECAC1A"/>
<stop offset="0.31985" stop-color="#E7BA1E"/>
<stop offset="0.68015" stop-color="#FFE864"/>
<stop offset="1" stop-color="#F5C635"/>
</linearGradient>
<linearGradient id="paint15_linear_1369_19558" x1="50.04" y1="19.0337" x2="57.8932" y2="19.0337" gradientUnits="userSpaceOnUse">
<stop stop-color="#ECAC1A"/>
<stop offset="0.31985" stop-color="#E7BA1E"/>
<stop offset="0.68015" stop-color="#FFE864"/>
<stop offset="1" stop-color="#F5C635"/>
</linearGradient>
<linearGradient id="paint16_linear_1369_19558" x1="9.66211" y1="34.048" x2="15.8377" y2="34.048" gradientUnits="userSpaceOnUse">
<stop stop-color="#ECAC1A"/>
<stop offset="0.31985" stop-color="#E7BA1E"/>
<stop offset="0.68015" stop-color="#FFE864"/>
<stop offset="1" stop-color="#F5C635"/>
</linearGradient>
<linearGradient id="paint17_linear_1369_19558" x1="9.72266" y1="31.5796" x2="16.0396" y2="31.5796" gradientUnits="userSpaceOnUse">
<stop stop-color="#ECAC1A"/>
<stop offset="0.31985" stop-color="#E7BA1E"/>
<stop offset="0.68015" stop-color="#FFE864"/>
<stop offset="1" stop-color="#F5C635"/>
</linearGradient>
<linearGradient id="paint18_linear_1369_19558" x1="9.8252" y1="33.8313" x2="12.976" y2="33.8313" gradientUnits="userSpaceOnUse">
<stop stop-color="#ECAC1A"/>
<stop offset="0.31985" stop-color="#E7BA1E"/>
<stop offset="0.68015" stop-color="#FFE864"/>
<stop offset="1" stop-color="#F5C635"/>
</linearGradient>
<linearGradient id="paint19_linear_1369_19558" x1="0.478516" y1="8.07742" x2="22.1176" y2="8.07742" gradientUnits="userSpaceOnUse">
<stop stop-color="#ECAC1A"/>
<stop offset="0.31985" stop-color="#E7BA1E"/>
<stop offset="0.68015" stop-color="#FFE864"/>
<stop offset="1" stop-color="#F5C635"/>
</linearGradient>
<linearGradient id="paint20_linear_1369_19558" x1="0.603516" y1="5.60078" x2="22.4674" y2="5.60078" gradientUnits="userSpaceOnUse">
<stop stop-color="#ECAC1A"/>
<stop offset="0.31985" stop-color="#E7BA1E"/>
<stop offset="0.68015" stop-color="#FFE864"/>
<stop offset="1" stop-color="#F5C635"/>
</linearGradient>
<linearGradient id="paint21_linear_1369_19558" x1="16.623" y1="7.98549" x2="22.4675" y2="7.98549" gradientUnits="userSpaceOnUse">
<stop stop-color="#ECAC1A"/>
<stop offset="0.31985" stop-color="#E7BA1E"/>
<stop offset="0.68015" stop-color="#FFE864"/>
<stop offset="1" stop-color="#F5C635"/>
</linearGradient>
<linearGradient id="paint22_linear_1369_19558" x1="2.36523" y1="7.72571" x2="18.9835" y2="7.72571" gradientUnits="userSpaceOnUse">
<stop stop-color="#ECAC1A"/>
<stop offset="0.31985" stop-color="#E7BA1E"/>
<stop offset="0.68015" stop-color="#FFE864"/>
<stop offset="1" stop-color="#F5C635"/>
</linearGradient>
<linearGradient id="paint23_linear_1369_19558" x1="3.01758" y1="4.43788" x2="15.2866" y2="4.43788" gradientUnits="userSpaceOnUse">
<stop stop-color="#ECAC1A"/>
<stop offset="0.31985" stop-color="#E7BA1E"/>
<stop offset="0.68015" stop-color="#FFE864"/>
<stop offset="1" stop-color="#F5C635"/>
</linearGradient>
<linearGradient id="paint24_linear_1369_19558" x1="3.68555" y1="4.58813" x2="13.4988" y2="4.58813" gradientUnits="userSpaceOnUse">
<stop stop-color="#ECAC1A"/>
<stop offset="0.31985" stop-color="#E7BA1E"/>
<stop offset="0.68015" stop-color="#FFE864"/>
<stop offset="1" stop-color="#F5C635"/>
</linearGradient>
<linearGradient id="paint25_linear_1369_19558" x1="0" y1="21.95" x2="17.0354" y2="21.95" gradientUnits="userSpaceOnUse">
<stop stop-color="#ECAC1A"/>
<stop offset="0.31985" stop-color="#E7BA1E"/>
<stop offset="0.68015" stop-color="#FFE864"/>
<stop offset="1" stop-color="#F5C635"/>
</linearGradient>
<linearGradient id="paint26_linear_1369_19558" x1="0.0546875" y1="15.8728" x2="14.8536" y2="15.8728" gradientUnits="userSpaceOnUse">
<stop stop-color="#ECAC1A"/>
<stop offset="0.31985" stop-color="#E7BA1E"/>
<stop offset="0.68015" stop-color="#FFE864"/>
<stop offset="1" stop-color="#F5C635"/>
</linearGradient>
<linearGradient id="paint27_linear_1369_19558" x1="13.6484" y1="19.3158" x2="18.0181" y2="19.3158" gradientUnits="userSpaceOnUse">
<stop stop-color="#ECAC1A"/>
<stop offset="0.31985" stop-color="#E7BA1E"/>
<stop offset="0.68015" stop-color="#FFE864"/>
<stop offset="1" stop-color="#F5C635"/>
</linearGradient>
<linearGradient id="paint28_linear_1369_19558" x1="2.22949" y1="22.3276" x2="16.0086" y2="22.3276" gradientUnits="userSpaceOnUse">
<stop stop-color="#ECAC1A"/>
<stop offset="0.31985" stop-color="#E7BA1E"/>
<stop offset="0.68015" stop-color="#FFE864"/>
<stop offset="1" stop-color="#F5C635"/>
</linearGradient>
<linearGradient id="paint29_linear_1369_19558" x1="2.25" y1="18.2685" x2="11.5662" y2="18.2685" gradientUnits="userSpaceOnUse">
<stop stop-color="#ECAC1A"/>
<stop offset="0.31985" stop-color="#E7BA1E"/>
<stop offset="0.68015" stop-color="#FFE864"/>
<stop offset="1" stop-color="#F5C635"/>
</linearGradient>
<linearGradient id="paint30_linear_1369_19558" x1="5.09766" y1="26.5409" x2="13.7895" y2="26.5409" gradientUnits="userSpaceOnUse">
<stop stop-color="#ECAC1A"/>
<stop offset="0.31985" stop-color="#E7BA1E"/>
<stop offset="0.68015" stop-color="#FFE864"/>
<stop offset="1" stop-color="#F5C635"/>
</linearGradient>
<linearGradient id="paint31_linear_1369_19558" x1="3.10742" y1="19.0337" x2="10.9606" y2="19.0337" gradientUnits="userSpaceOnUse">
<stop stop-color="#ECAC1A"/>
<stop offset="0.31985" stop-color="#E7BA1E"/>
<stop offset="0.68015" stop-color="#FFE864"/>
<stop offset="1" stop-color="#F5C635"/>
</linearGradient>
<linearGradient id="paint32_linear_1369_19558" x1="11.7607" y1="27.3513" x2="48.9645" y2="27.3513" gradientUnits="userSpaceOnUse">
<stop stop-color="#ECAC1A"/>
<stop offset="0.31985" stop-color="#E7BA1E"/>
<stop offset="0.68015" stop-color="#FFE864"/>
<stop offset="1" stop-color="#F5C635"/>
</linearGradient>
<linearGradient id="paint33_linear_1369_19558" x1="12.2988" y1="27.3514" x2="48.4264" y2="27.3514" gradientUnits="userSpaceOnUse">
<stop stop-color="#ECAC1A"/>
<stop offset="0.31985" stop-color="#E7BA1E"/>
<stop offset="0.68015" stop-color="#FFE864"/>
<stop offset="1" stop-color="#F5C635"/>
</linearGradient>
<linearGradient id="paint34_linear_1369_19558" x1="16.1699" y1="27.3515" x2="44.5554" y2="27.3515" gradientUnits="userSpaceOnUse">
<stop stop-color="#ECAC1A"/>
<stop offset="1" stop-color="#F5C635"/>
</linearGradient>
<linearGradient id="paint35_linear_1369_19558" x1="16.1699" y1="27.3515" x2="44.5554" y2="27.3515" gradientUnits="userSpaceOnUse">
<stop stop-color="#ECAC1A"/>
<stop offset="0.31985" stop-color="#E7BA1E"/>
<stop offset="0.68015" stop-color="#FFE864"/>
<stop offset="1" stop-color="#F5C635"/>
</linearGradient>
<linearGradient id="paint36_linear_1369_19558" x1="17.2773" y1="18.2239" x2="43.9641" y2="18.2239" gradientUnits="userSpaceOnUse">
<stop stop-color="#ECAC1A"/>
<stop offset="0.31985" stop-color="#E7BA1E"/>
<stop offset="0.68015" stop-color="#FFE864"/>
<stop offset="1" stop-color="#F5C635"/>
</linearGradient>
<linearGradient id="paint37_linear_1369_19558" x1="44.4404" y1="27.436" x2="48.2236" y2="27.436" gradientUnits="userSpaceOnUse">
<stop stop-color="#ECAC1A"/>
<stop offset="0.31985" stop-color="#E7BA1E"/>
<stop offset="0.68015" stop-color="#FFE864"/>
<stop offset="1" stop-color="#F5C635"/>
</linearGradient>
<linearGradient id="paint38_linear_1369_19558" x1="21.3438" y1="39.9561" x2="38.8817" y2="39.9561" gradientUnits="userSpaceOnUse">
<stop stop-color="#ECAC1A"/>
<stop offset="0.31985" stop-color="#E7BA1E"/>
<stop offset="0.68015" stop-color="#FFE864"/>
<stop offset="1" stop-color="#F5C635"/>
</linearGradient>
<radialGradient id="paint39_radial_1369_19558" cx="0" cy="0" r="1" gradientUnits="userSpaceOnUse" gradientTransform="translate(54.3604 1.26557) rotate(164.623) scale(3.52809 0.548746)">
<stop offset="0.51955" stop-color="#A68F95"/>
<stop offset="1"/>
</radialGradient>
<clipPath id="clip0_1369_19558">
<rect width="61" height="46" fill="white"/>
</clipPath>
</defs>
</svg>
