<svg width="150" height="106" viewBox="0 0 150 106" fill="none" xmlns="http://www.w3.org/2000/svg">
<path d="M149.378 43.559C149.378 46.6585 148.798 49.7684 147.636 52.8161C144.692 60.5597 138.017 67.9198 127.588 73.9322C98.5418 90.7049 51.4582 90.7049 22.4119 73.9322C11.9834 67.9198 5.29716 60.5597 2.36351 52.8161C1.20249 49.7788 0.621975 46.6585 0.621975 43.559C0.621975 32.5708 7.87837 21.5929 22.4119 13.1962C51.4478 -3.56605 98.5418 -3.56605 127.588 13.1962C142.111 21.5825 149.378 32.5708 149.378 43.5487V43.559Z" fill="#DF30AA" stroke="#11143D" stroke-width="1.2" stroke-linecap="round" stroke-linejoin="round"/>
<path d="M134.285 43.559C134.285 45.8499 133.818 48.1512 132.896 50.4007C130.543 56.1229 125.225 61.5548 116.911 66.002C93.763 78.3897 56.2267 78.3897 33.0788 66.002C24.765 61.5652 19.4368 56.1229 17.094 50.4007C16.1714 48.1512 15.7049 45.8499 15.7049 43.559C15.7049 35.4422 21.4893 27.3358 33.0684 21.1367C56.2163 8.74902 93.7526 8.74902 116.9 21.1367C128.48 27.3358 134.264 35.4525 134.264 43.559H134.285Z" fill="#782186" stroke="#11143D" stroke-width="1.2" stroke-linecap="round" stroke-linejoin="round"/>
<path d="M149.378 43.5592V62.0734C149.378 73.0513 142.111 84.0395 127.588 92.4258C98.5418 109.198 51.4582 109.198 22.4119 92.4258C7.87837 84.0291 0.621975 73.0512 0.621975 62.063V43.5488C0.621975 46.6483 1.20249 49.7582 2.36351 52.8059C5.29716 60.5495 11.9834 67.9096 22.4119 73.922C51.4582 90.6946 98.5418 90.6946 127.588 73.922C138.017 67.9096 144.692 60.5495 147.636 52.8059C148.798 49.7686 149.378 46.6483 149.378 43.5488V43.5592Z" fill="#B433B8" stroke="#11143D" stroke-width="1.2" stroke-miterlimit="10"/>
<path d="M145.729 75.3629V56.8384" stroke="#11143D" stroke-width="1.2" stroke-linecap="round" stroke-linejoin="round"/>
<path d="M137.405 85.418V66.9246" stroke="#11143D" stroke-width="1.2" stroke-linecap="round" stroke-linejoin="round"/>
<path d="M129.081 91.5342V73.0408" stroke="#11143D" stroke-width="1.2" stroke-linecap="round" stroke-linejoin="round"/>
<path d="M120.746 95.9087V77.4153" stroke="#11143D" stroke-width="1.2" stroke-linecap="round" stroke-linejoin="round"/>
<path d="M112.412 99.1741V80.6807" stroke="#11143D" stroke-width="1.2" stroke-linecap="round" stroke-linejoin="round"/>
<path d="M104.077 101.59V83.0962" stroke="#11143D" stroke-width="1.2" stroke-linecap="round" stroke-linejoin="round"/>
<path d="M95.7636 103.31V84.7961" stroke="#11143D" stroke-width="1.2" stroke-linecap="round" stroke-linejoin="round"/>
<path d="M87.4292 104.399V85.9053" stroke="#11143D" stroke-width="1.2" stroke-linecap="round" stroke-linejoin="round"/>
<path d="M79.0947 104.938V86.4443" stroke="#11143D" stroke-width="1.2" stroke-linecap="round" stroke-linejoin="round"/>
<path d="M70.7706 104.928V86.4341" stroke="#11143D" stroke-width="1.2" stroke-linecap="round" stroke-linejoin="round"/>
<path d="M62.4464 104.388V85.8845" stroke="#11143D" stroke-width="1.2" stroke-linecap="round" stroke-linejoin="round"/>
<path d="M54.112 103.29V84.7754" stroke="#11143D" stroke-width="1.2" stroke-linecap="round" stroke-linejoin="round"/>
<path d="M45.7878 101.558V83.0649" stroke="#11143D" stroke-width="1.2" stroke-linecap="round" stroke-linejoin="round"/>
<path d="M37.4534 99.1431V80.6289" stroke="#11143D" stroke-width="1.2" stroke-linecap="round" stroke-linejoin="round"/>
<path d="M29.1189 95.8568V77.353" stroke="#11143D" stroke-width="1.2" stroke-linecap="round" stroke-linejoin="round"/>
<path d="M20.8051 91.4616V72.9578" stroke="#11143D" stroke-width="1.2" stroke-linecap="round" stroke-linejoin="round"/>
<path d="M12.4706 85.304V66.8313" stroke="#11143D" stroke-width="1.2" stroke-linecap="round" stroke-linejoin="round"/>
<path d="M5.50449 77.3532V58.8909" stroke="#11143D" stroke-width="1.2" stroke-linecap="round" stroke-linejoin="round"/>
<path d="M118 41.6312C116.757 42.5448 115.409 43.2946 114.091 44.088C111.44 45.6846 108.764 47.2413 106.087 48.7969C105.115 49.3619 104.224 50.0584 103.198 50.5336C102.774 50.5771 102.408 50.7313 102.145 51.0825C101.607 51.2721 101.081 51.3982 100.67 50.8361C100.459 50.3049 100.3 49.7569 100.135 49.2105C99.9885 48.7259 99.7215 48.488 99.2136 48.8011C97.4549 49.1198 95.6948 49.4318 93.9376 49.7587C90.1849 50.4568 86.4334 51.1616 82.6818 51.8655C78.9515 52.5653 75.2223 53.2714 71.491 53.9663C69.9731 54.249 68.4509 54.5091 66.9307 54.7796C66.3187 54.6909 65.8486 54.8915 65.4932 55.4129C65.1863 55.8633 64.9287 56.3375 64.6835 56.8209C64.5719 57.2697 64.2661 57.6103 64.029 57.9891C63.5687 58.3821 63.4373 58.9869 63.0843 59.4489L63.0878 59.4441C62.7285 59.961 62.426 60.5102 62.1516 61.0755C61.8076 61.9176 61.2862 62.6241 60.5465 63.1637C60.0589 63.2304 59.7412 63.5979 59.3501 63.8355L59.3546 63.8321C58.5919 64.2363 57.7335 64.3988 56.9598 64.7753C56.6224 64.9547 56.2446 64.9607 55.8803 65.0244C55.4375 64.8341 55.0167 65.0918 54.5844 65.0872C53.7473 65.0781 52.9068 65.1527 52.0748 64.997C51.8367 64.9524 51.5972 64.9096 51.3633 65.0193L51.2204 64.9026C49.8942 64.5806 48.5445 64.3076 47.413 63.4834C46.7264 62.9833 46.1095 62.409 46.0973 61.4603C46.0898 60.8745 46.4546 60.4296 46.6845 59.9338C46.8797 59.0776 47.4716 58.4214 47.895 57.6928C48.831 56.0822 49.8356 54.5112 50.7368 52.8776C51.1361 52.1538 51.6487 51.4922 52.1098 50.8023C52.7019 49.78 53.5951 49.0601 54.542 48.3942C55.0266 48.0271 55.5923 47.8264 56.1523 47.6141C56.7593 47.6133 57.3047 47.3552 57.8753 47.2027C58.8774 46.8628 59.9323 46.7737 60.9603 46.5569C61.8291 46.6045 62.6579 46.4139 63.4722 46.1372C64.8281 45.8731 66.1835 45.6068 67.5399 45.3455C69.7658 44.9166 71.9917 44.4874 74.219 44.0659C75.0404 43.9105 75.8658 43.7765 76.6894 43.6328C77.4091 43.7602 78.0816 43.4831 78.7655 43.359C79.6692 43.1951 80.5934 43.1159 81.4696 42.8128C82.29 42.4607 83.192 42.5044 84.0403 42.287C84.2101 42.2435 84.3822 42.2087 84.5533 42.1699C85.2749 42.3131 85.9432 42.0049 86.6293 41.8933C87.5377 41.7455 88.4632 41.6512 89.3431 41.3501C90.6039 40.9815 91.906 40.8091 93.1931 40.5738C94.2899 40.3733 95.3727 40.0698 96.4973 40.0338C97.2471 39.8224 97.2753 39.8169 97.1267 39.0584C97.0681 38.7595 97.1318 38.3851 96.8038 38.1726C96.8149 37.8994 96.9931 37.8401 97.2279 37.7592C97.9677 37.5044 98.6986 37.6468 99.4231 37.7672C100.969 38.0243 102.51 38.3017 104.063 38.5217C105.53 38.7297 106.978 39.0656 108.441 39.3103C109.901 39.5547 111.383 39.6884 112.83 39.9934C114.547 40.3554 116.311 40.4631 118 40.9666V41.6312V41.6312Z" fill="#E4E3E4"/>
<path d="M52.5526 43.2256C51.6367 42.7408 50.8315 42.1314 50.2898 41.2256C50.2807 40.7729 49.9286 40.4563 49.818 40.0432C49.1789 37.8753 48.6282 35.6832 47.9737 33.5204C47.7773 32.7143 47.5523 31.9161 47.3057 31.124C47.1129 30.3253 46.889 29.5351 46.6454 28.7505C46.5312 28.243 46.4041 27.7391 46.3022 27.2277C46.1284 26.3554 46.3669 25.5929 46.7811 24.8503C47.1589 24.1731 47.7527 23.686 48.2771 23.1376L48.8257 22.7599C49.3655 22.648 49.8359 22.391 50.2753 22.0693C50.864 21.7456 51.5013 21.5639 52.1545 21.4282C52.8252 21.5881 53.4412 21.2628 54.0881 21.1989C55.2561 21.0835 56.4141 21.0081 57.5761 21.2203C57.8557 21.2714 58.15 21.1593 58.4231 21.2926L58.4138 21.2875C59.8544 21.4694 61.1737 22.0635 62.5408 22.4951C63.0075 22.7745 63.4945 23.0245 63.885 23.4147C65.4415 24.8279 65.7605 26.801 66.283 28.6826C67.1544 31.8205 68.0583 34.9495 68.8898 38.0984C69.2718 39.5449 68.9348 40.7969 67.8613 41.8464C67.6082 42.0938 67.3758 42.3638 67.0817 42.5673L67.086 42.5641C66.4242 43.0029 65.776 43.4668 64.9985 43.692C64.3568 44.0442 63.6175 44.1316 62.9582 44.4372C62.263 44.6955 61.52 44.6824 60.8025 44.8141C59.8802 44.7126 58.9578 44.7177 58.0353 44.8106C57.3102 44.716 56.5671 44.7239 55.8766 44.4327C54.7377 44.115 53.6559 43.6409 52.5526 43.2256L52.5526 43.2256Z" fill="#E4E3E4"/>
<path d="M84.5566 29.5354C85.0232 29.4953 85.4853 29.4786 85.8858 29.7861C86.4753 30.1614 87.1581 30.3536 87.7474 30.7292L87.7416 30.7252C88.5642 31.2668 89.231 31.9198 89.5309 32.905C89.7693 33.6884 89.5379 34.3563 89.1867 35.0283C89.1025 35.1894 88.8472 35.27 88.9428 35.519C88.8524 35.6965 88.7246 35.8354 88.5362 35.912C88.2341 35.8591 88.1481 36.1466 87.9679 36.2799C87.346 36.7398 86.6311 36.9951 85.9116 37.2462C84.3259 37.6748 82.7374 38.0383 81.0753 37.7205C80.8262 37.6729 80.5457 37.6495 80.2907 37.7673C80.0422 37.6 79.7045 37.7424 79.4684 37.5317C78.6638 37.2294 77.8188 37.0281 77.0717 36.5815L77.0783 36.5865C76.721 36.3289 76.335 36.1063 76.0575 35.751C74.324 34.2847 74.761 32.1618 76.3983 31.0586C76.544 30.9605 76.6661 30.8283 76.8105 30.7256L76.8057 30.7294C78.1995 29.8803 79.7482 29.5334 81.3443 29.3379C82.4212 29.3131 83.4945 29.3342 84.5566 29.5354V29.5354Z" fill="#E4E3E4"/>
</svg>
