<svg width="157" height="128" viewBox="0 0 157 128" fill="none" xmlns="http://www.w3.org/2000/svg">
<path d="M155.62 46.6025V46.9625C155.58 48.7825 154.64 50.5725 152.84 51.6025L147.7 54.5725L84.98 90.7825C80.85 93.1625 75.77 93.1625 71.63 90.7825L8.92 54.5725L3.78 51.6025C1.92 50.5325 1 48.6625 1 46.7825C1 44.9025 1.92 43.0325 3.78 41.9625L71.63 2.7925C75.77 0.4025 80.85 0.4025 84.98 2.7925L152.84 41.9625C154.64 42.9925 155.58 44.7925 155.62 46.6025Z" fill="#FFF0FF" stroke="#782186" stroke-width="1.2" stroke-linecap="round" stroke-linejoin="round"/>
<path d="M34.65 55.0725L42.83 50.3425" stroke="#782186" stroke-width="1.2" stroke-linecap="round" stroke-linejoin="round"/>
<path d="M65.38 72.8125L73.56 68.0925" stroke="#782186" stroke-width="1.2" stroke-linecap="round" stroke-linejoin="round"/>
<path d="M59.23 69.2625L67.42 64.5425" stroke="#782186" stroke-width="1.2" stroke-linecap="round" stroke-linejoin="round"/>
<path d="M53.09 65.7124L61.27 60.9924" stroke="#782186" stroke-width="1.2" stroke-linecap="round" stroke-linejoin="round"/>
<path d="M46.94 62.1726L55.12 57.4426" stroke="#782186" stroke-width="1.2" stroke-linecap="round" stroke-linejoin="round"/>
<path d="M40.79 58.6226L48.98 53.8926" stroke="#782186" stroke-width="1.2" stroke-linecap="round" stroke-linejoin="round"/>
<path d="M121.98 55.0725L113.79 50.3425" stroke="#782186" stroke-width="1.2" stroke-linecap="round" stroke-linejoin="round"/>
<path d="M91.2401 72.8125L83.0601 68.0925" stroke="#782186" stroke-width="1.2" stroke-linecap="round" stroke-linejoin="round"/>
<path d="M97.3901 69.2625L89.2101 64.5425" stroke="#782186" stroke-width="1.2" stroke-linecap="round" stroke-linejoin="round"/>
<path d="M103.54 65.7124L95.35 60.9924" stroke="#782186" stroke-width="1.2" stroke-linecap="round" stroke-linejoin="round"/>
<path d="M109.68 62.1726L101.5 57.4426" stroke="#782186" stroke-width="1.2" stroke-linecap="round" stroke-linejoin="round"/>
<path d="M115.83 58.6226L107.65 53.8926" stroke="#782186" stroke-width="1.2" stroke-linecap="round" stroke-linejoin="round"/>
<path d="M34.65 38.5024L42.83 43.2224" stroke="#782186" stroke-width="1.2" stroke-linecap="round" stroke-linejoin="round"/>
<path d="M65.38 20.7625L73.56 25.4825" stroke="#782186" stroke-width="1.2" stroke-linecap="round" stroke-linejoin="round"/>
<path d="M59.23 24.3125L67.42 29.0325" stroke="#782186" stroke-width="1.2" stroke-linecap="round" stroke-linejoin="round"/>
<path d="M53.09 27.8525L61.27 32.5825" stroke="#782186" stroke-width="1.2" stroke-linecap="round" stroke-linejoin="round"/>
<path d="M46.94 31.4023L55.12 36.1323" stroke="#782186" stroke-width="1.2" stroke-linecap="round" stroke-linejoin="round"/>
<path d="M40.79 34.9524L48.98 39.6824" stroke="#782186" stroke-width="1.2" stroke-linecap="round" stroke-linejoin="round"/>
<path d="M121.98 38.5024L113.79 43.2224" stroke="#782186" stroke-width="1.2" stroke-linecap="round" stroke-linejoin="round"/>
<path d="M91.2401 20.7625L83.0601 25.4825" stroke="#782186" stroke-width="1.2" stroke-linecap="round" stroke-linejoin="round"/>
<path d="M97.3901 24.3125L89.2101 29.0325" stroke="#782186" stroke-width="1.2" stroke-linecap="round" stroke-linejoin="round"/>
<path d="M103.54 27.8525L95.35 32.5825" stroke="#782186" stroke-width="1.2" stroke-linecap="round" stroke-linejoin="round"/>
<path d="M109.68 31.4023L101.5 36.1323" stroke="#782186" stroke-width="1.2" stroke-linecap="round" stroke-linejoin="round"/>
<path d="M115.83 34.9524L107.65 39.6824" stroke="#782186" stroke-width="1.2" stroke-linecap="round" stroke-linejoin="round"/>
<path d="M120.35 49.0925L109.99 55.0725L82.3 71.0625C79.83 72.4825 76.79 72.4825 74.32 71.0625L46.63 55.0725L36.27 49.0925C34.5 48.0725 34.5 45.5125 36.27 44.4925L74.32 22.5225C76.79 21.1025 79.83 21.1025 82.3 22.5225L120.35 44.4925C122.12 45.5225 122.12 48.0825 120.35 49.0925Z" fill="#5837A1" stroke="#782186" stroke-width="1.2" stroke-linecap="round" stroke-linejoin="round"/>
<path d="M110 55.0723L82.31 71.0623C79.84 72.4823 76.8 72.4823 74.33 71.0623L46.64 55.0723L74.33 39.0823C76.8 37.6623 79.84 37.6623 82.31 39.0823L110 55.0723V55.0723Z" fill="#FFF0FF" stroke="#782186" stroke-width="1.2" stroke-miterlimit="10"/>
<path d="M155.62 46.9625V81.3425C155.58 83.1625 154.64 84.9525 152.84 85.9825L84.98 125.162C80.85 127.542 75.77 127.542 71.63 125.162L3.78 85.9825C1.92 84.9125 1 83.0425 1 81.1625V46.7825C1 48.6625 1.92 50.5325 3.78 51.6025L8.92 54.5725L71.63 90.7825C75.77 93.1625 80.85 93.1625 84.98 90.7825L147.7 54.5725L152.84 51.6025C154.64 50.5725 155.58 48.7825 155.62 46.9625V46.9625Z" fill="#DF30AA" stroke="#782186" stroke-width="1.2" stroke-linecap="round" stroke-linejoin="round"/>
<path d="M15.81 58.5525V73.7125C15.81 75.2825 16.65 76.7425 18.01 77.5325L34.01 86.7625C35.37 87.5525 36.21 89.0025 36.21 90.5825V98.1125" stroke="#782186" stroke-width="1.2" stroke-linecap="round" stroke-linejoin="round"/>
<path d="M120.4 104.722V96.7524C120.4 95.1824 121.24 93.7224 122.6 92.9324L138.6 83.7024C139.96 82.9124 140.8 81.4624 140.8 79.8824V65.7124" stroke="#782186" stroke-width="1.2" stroke-linecap="round" stroke-linejoin="round"/>
<path d="M56.01 90.0024V116.152" stroke="#782186" stroke-width="1.2" stroke-linecap="round" stroke-linejoin="round"/>
<path d="M106.29 78.4824V106.312" stroke="#782186" stroke-width="1.2" stroke-linecap="round" stroke-linejoin="round"/>
</svg>
