<svg width="186" height="121" viewBox="0 0 186 121" fill="none" xmlns="http://www.w3.org/2000/svg">
<path d="M166.59 45.9701V52.7501L157.23 47.3501V40.5601L163.11 43.9601L166.59 45.9701Z" fill="#782186" stroke="#223893" stroke-width="1.2" stroke-linecap="round" stroke-linejoin="round"/>
<path d="M170.75 32.7201L167.83 34.4101L135.48 15.7301C133.85 14.7901 131.2 14.7901 129.57 15.7301L95.05 35.6701L85.68 30.2601V23.4801L91.56 26.8701L95.05 28.8901L129.57 8.96013C131.2 8.02013 133.85 8.02013 135.48 8.96013L170.75 29.3201C172.38 30.2601 172.38 31.7901 170.75 32.7301V32.7201Z" fill="#782186" stroke="#223893" stroke-width="1.2" stroke-linecap="round" stroke-linejoin="round"/>
<path d="M185.2 31.1901V31.2701C185.16 32.3401 184.82 33.4001 184.18 34.4201C183.34 35.7801 181.98 37.0501 180.11 38.1301L166.59 45.9801L163.11 43.9601L157.23 40.5601L167.83 34.4201L170.75 32.7301C172.38 31.7901 172.38 30.2601 170.75 29.3201L135.48 8.9601C133.85 8.0201 131.2 8.0201 129.57 8.9601L95.05 28.8901L91.56 26.8701L85.68 23.4801L120.21 3.5401C127.01 -0.379902 138.06 -0.379902 144.86 3.5401L180.12 23.9101C183.59 25.9201 185.29 28.5601 185.21 31.2001L185.2 31.1901Z" fill="#B433B8" stroke="#223893" stroke-width="1.2" stroke-linecap="round" stroke-linejoin="round"/>
<path d="M95.05 28.8801V35.6701" stroke="#223893" stroke-width="1.2" stroke-linecap="round" stroke-linejoin="round"/>
<path d="M185.2 31.27V38C185.12 40.5 183.42 43 180.11 44.92L166.59 52.76V45.98L180.11 38.13C181.98 37.05 183.34 35.78 184.18 34.42C184.82 33.4 185.16 32.34 185.2 31.27V31.27Z" fill="#782186" stroke="#223893" stroke-width="1.2" stroke-linecap="round" stroke-linejoin="round"/>
<path d="M158.56 68.93C158.56 63.67 155.36 57.56 151.41 55.28L85.66 17.31C83.89 16.29 82.28 16.22 81.03 16.91L2.52002 62.54L78.44 119.75L155.79 74.86C156.03 74.75 156.26 74.62 156.47 74.46C157.76 73.48 158.56 71.56 158.56 68.93V68.93Z" fill="#FFF0FF" stroke="#223893" stroke-width="1.2" stroke-linecap="round" stroke-linejoin="round"/>
<path d="M78.44 119.75L155.79 74.8601C156.03 74.7501 156.26 74.6201 156.47 74.4601C157.76 73.4801 158.56 71.5601 158.56 68.9301C158.56 66.3001 157.83 63.7201 156.63 61.3301L68.46 112.23L78.43 119.75H78.44Z" fill="#DF30AA" stroke="#223893" stroke-width="1.2" stroke-linecap="round" stroke-linejoin="round"/>
<path d="M74.29 100.13L8.53998 62.17C6.72998 61.13 5.07998 61.08 3.81998 61.83C1.87998 62.41 0.599976 64.6 0.599976 67.93C0.599976 73.19 3.79998 79.3 7.74998 81.58L73.5 119.54C75.33 120.6 77 120.64 78.27 119.86C80.18 119.25 81.44 117.08 81.44 113.78C81.44 108.52 78.24 102.4 74.29 100.13V100.13Z" fill="#B433B8" stroke="#223893" stroke-width="1.2" stroke-linecap="round" stroke-linejoin="round"/>
<path d="M67.4 108.97L55.67 102.2C54.5 101.53 53.56 99.72 53.56 98.16C53.56 96.6 54.51 95.89 55.67 96.56L67.4 103.33C68.57 104 69.51 105.81 69.51 107.37C69.51 108.93 68.56 109.64 67.4 108.97Z" fill="#782186" stroke="#223893" stroke-width="1.2" stroke-linecap="round" stroke-linejoin="round"/>
<path d="M41.15 94.23L29.42 87.46C28.25 86.79 27.31 84.98 27.31 83.42C27.31 81.86 28.26 81.15 29.42 81.82L41.15 88.59C42.32 89.26 43.26 91.07 43.26 92.63C43.26 94.19 42.31 94.9 41.15 94.23Z" fill="#FFF0FF" stroke="#223893" stroke-width="1.2" stroke-linecap="round" stroke-linejoin="round"/>
<path d="M71.29 52.0401C74.02 50.4301 73.99 47.8601 71.23 46.3001C68.47 44.7401 64.02 44.7901 61.29 46.4001C58.56 48.0101 58.59 50.5801 61.35 52.1401C64.11 53.7001 68.56 53.6501 71.29 52.0401Z" fill="#782186" stroke="#223893" stroke-width="1.2" stroke-linecap="round" stroke-linejoin="round"/>
<path d="M86.44 60.5801C89.17 58.9701 89.14 56.4001 86.38 54.8401C83.62 53.2801 79.17 53.3301 76.44 54.9401C73.71 56.5501 73.74 59.1201 76.5 60.6801C79.26 62.2401 83.71 62.1901 86.44 60.5801Z" fill="#B433B8" stroke="#223893" stroke-width="1.2" stroke-linecap="round" stroke-linejoin="round"/>
<path d="M101.59 69.1199C104.32 67.5099 104.29 64.9399 101.53 63.3799C98.77 61.8199 94.32 61.8699 91.59 63.4799C88.86 65.0899 88.89 67.6599 91.65 69.2199C94.41 70.7799 98.86 70.7299 101.59 69.1199Z" fill="#DF30AA" stroke="#223893" stroke-width="1.2" stroke-linecap="round" stroke-linejoin="round"/>
</svg>
